<svg width="60" height="60" viewBox="0 0 60 60" fill="none" xmlns="http://www.w3.org/2000/svg">
<g clip-path="url(#clip0_229_5)">
<rect width="60" height="60" fill="white"/>
<rect width="60" height="60" fill="white"/>
<rect y="11" width="60" height="49" fill="#F77F64"/>
<rect x="6.3999" y="6.39996" width="47.2" height="47.2" stroke="black" stroke-width="2"/>
<path d="M38.6854 20.4575V40.5127H38.5806L25.097 28.3382L25.1755 39.7273H21.3268V19.6982H21.4839L34.9414 32.056L34.8628 20.4575H38.6854Z" fill="white"/>
<path d="M29.742 50.8489C29.788 50.5545 30.212 50.5545 30.258 50.8489L30.523 52.542C30.5535 52.737 30.6913 52.8982 30.8793 52.9586L32.2261 53.3913C32.4678 53.469 32.4678 53.8109 32.2261 53.8886L30.8793 54.3213C30.6913 54.3817 30.5535 54.5429 30.523 54.7379L30.258 56.431C30.212 56.7254 29.788 56.7254 29.742 56.431L29.477 54.7379C29.4465 54.5429 29.3087 54.3817 29.1207 54.3213L27.7739 53.8886C27.5322 53.8109 27.5322 53.469 27.7739 53.3913L29.1207 52.9586C29.3087 52.8982 29.4465 52.737 29.477 52.542L29.742 50.8489Z" fill="white"/>
</g>
<defs>
<clipPath id="clip0_229_5">
<rect width="60" height="60" fill="white"/>
</clipPath>
</defs>
</svg>
