<svg width="327" height="306" viewBox="0 0 327 306" fill="none" xmlns="http://www.w3.org/2000/svg">
<path d="M83.5945 26.6237C109.335 0.140803 137.969 1.08721 154.822 2.66357C157.887 2.66361 165.854 4.55531 173.208 12.1219C179.337 8.96913 206.014 1.86092 221.488 7.70745C258.26 21.6006 263.803 26.3348 273.28 54.7403C279.677 73.9147 285.991 66.8162 304.224 92.831C320.663 116.286 327.66 141.257 322.921 160.194C317.782 180.734 305.697 206.022 314.762 248.584C321.856 281.886 288.944 302.307 276.687 303.884C279.407 285.753 251.046 277.888 221.488 281.341C192.029 284.783 154.073 276.612 138.752 271.883C124.043 279.45 120.366 287.647 120.366 290.799C65.2087 286.07 46.8229 252.967 46.8229 252.967C46.8229 252.967 35.0894 275.327 37.6299 290.799C28.437 282.918 1.99995 253.921 2 233.626C2.00009 197.906 24.0638 193.089 19.6779 168.362C15.5895 145.313 10.0513 97.5601 37.63 73.9147C65.2087 50.2692 51.4193 59.7273 83.5945 26.6237Z" fill="#2D2927" stroke="black" stroke-width="4" stroke-linecap="round" stroke-linejoin="round"/>
<path d="M86.4851 177.167C86.4851 189.134 76.7751 198.838 64.7936 198.838C52.8121 198.838 43.1021 189.134 43.1021 177.167C43.1021 165.2 52.8121 155.495 64.7936 155.495C76.7751 155.495 86.4851 165.2 86.4851 177.167Z" fill="#E1C79F" stroke="#926851" stroke-width="4"/>
<path d="M290.232 177.167C290.232 189.134 280.522 198.838 268.541 198.838C256.559 198.838 246.849 189.134 246.849 177.167C246.849 165.2 256.559 155.495 268.541 155.495C280.522 155.495 290.232 165.2 290.232 177.167Z" fill="#E1C79F" stroke="#926851" stroke-width="4"/>
<path d="M280.757 148.761C280.757 207.713 230.821 255.649 169.037 255.649C107.254 255.649 57.3181 207.713 57.3181 148.761C57.3181 89.8097 107.254 41.8735 169.037 41.8735C230.821 41.8735 280.757 89.8097 280.757 148.761Z" fill="#E1C79F" stroke="#926851" stroke-width="4"/>
<path d="M79.0098 248.591C69.5332 239.122 58.4773 209.139 55.3184 201.248L55.3182 201.247C50.5802 172.843 50.58 172.842 55.3184 134.969C62.8557 97.6488 72.7115 74.8335 91.296 55.3425C109.88 35.8515 215.041 29.5056 249.589 55.3426C268.571 69.5384 279.101 113.053 282.757 134.969C287.495 163.374 282.757 182.311 278.019 210.717C273.281 229.654 259.065 253.325 249.589 258.059C264.751 212.61 266.963 169.686 263.804 153.906C260.544 137.067 247.315 100.942 220.48 91.1516C186.938 78.913 132.544 84.8057 118.493 87.9786C107.251 90.517 87.0195 107.738 83.7481 116.032C64.7949 168.108 74.2715 229.654 79.0098 248.591Z" fill="#2D2927"/>
<path d="M249.589 69.5384C268.571 83.7342 279.101 113.053 282.757 134.969C287.495 163.374 282.757 182.311 278.019 210.717C273.281 229.654 259.065 253.325 249.589 258.059C264.751 212.61 266.963 169.687 263.804 153.906C260.543 137.067 247.315 100.943 220.48 91.1517C186.938 78.9132 132.544 84.8058 118.493 87.9788C107.251 90.5171 87.0195 107.738 83.7481 116.032C64.7949 168.108 74.2715 229.654 79.0098 248.591C69.5332 239.122 58.4773 209.139 55.3184 201.248C50.5802 172.843 50.58 172.843 55.3184 134.969C62.8557 97.6489 69.5386 87.6696 88.123 68.1786" stroke="black" stroke-width="4" stroke-linecap="round" stroke-linejoin="round"/>
<path d="M123.193 158.684C123.193 162.638 118.987 165.843 113.798 165.843C108.609 165.843 104.403 162.638 104.403 158.684C104.403 154.731 108.609 151.526 113.798 151.526C118.987 151.526 123.193 154.731 123.193 158.684Z" fill="black"/>
<ellipse cx="225.644" cy="158.684" rx="9.39511" ry="7.15818" fill="black"/>
<path d="M123.044 188.411C141.685 200.838 197.609 200.838 216.25 188.411" stroke="#926851" stroke-width="4" stroke-linecap="round" stroke-linejoin="round"/>
<path d="M92.3126 238.755C89.3834 243.828 80.481 252.218 68.3046 245.188C64.8178 243.175 62.8099 240.906 61.7886 238.574C60.4314 235.475 60.8165 232.264 61.7886 229.393C62.6395 226.88 63.9402 224.627 64.9159 222.937L64.916 222.937C64.0583 219.736 56.8013 209.6 55.6113 207.418C53.1624 202.928 47.4512 196.739 54.7956 194.771C57.458 194.058 60.4797 198.394 61.7886 200.617C67.0241 209.507 70.4028 214.605 73.8757 217.963L70.016 203.559C68.7294 198.757 67.4428 193.955 72.2444 192.669C76.0857 191.64 77.9037 194.583 78.3326 196.184C79.2477 202.8 82.553 217.697 88.4528 224.35C89.4437 225.467 90.2436 226.559 90.8833 227.61C94.0524 232.821 93.2874 237.066 92.3126 238.755Z" fill="#E1C79F"/>
<path d="M64.916 222.937C64.0583 219.736 56.8013 209.6 55.6113 207.418C53.1624 202.928 47.4512 196.739 54.7956 194.771C57.458 194.058 60.4797 198.394 61.7886 200.617C67.0241 209.507 70.4028 214.605 73.8757 217.963C73.018 214.762 71.0452 207.4 70.016 203.559C68.7294 198.757 67.4428 193.955 72.2444 192.669C76.0857 191.64 77.9037 194.583 78.3326 196.184C79.2477 202.8 82.553 217.697 88.4528 224.35C89.4437 225.467 90.2436 226.559 90.8833 227.61M64.916 222.937C66.581 224.058 70.3776 226.735 72.2444 228.481M64.916 222.937C63.9403 224.627 62.6395 226.88 61.7886 229.393M92.3126 238.755C89.3834 243.828 80.481 252.218 68.3046 245.188C64.8178 243.175 62.8099 240.906 61.7886 238.574M92.3126 238.755C93.2874 237.066 94.0524 232.821 90.8833 227.61M92.3126 238.755C89.0355 238.023 79.3411 238.007 73.8757 235.468M90.8833 227.61C87.0216 227.12 76.7886 226.763 72.2444 228.481M69.607 233.149C67.1215 230.664 70.87 229.001 72.2444 228.481M69.607 233.149C69.607 233.149 71.5693 234.397 73.8757 235.468M69.607 233.149L61.7886 229.393M61.7886 238.574C62.2696 237.483 65.3604 235.335 73.8757 235.468M61.7886 238.574C60.4314 235.475 60.8165 232.264 61.7886 229.393" stroke="#926851" stroke-width="4" stroke-linecap="round" stroke-linejoin="round"/>
<path d="M234.705 238.755C237.634 243.828 246.536 252.218 258.712 245.188C262.199 243.175 264.207 240.906 265.228 238.574C266.586 235.475 266.201 232.264 265.228 229.393C264.378 226.88 263.077 224.627 262.101 222.937L262.101 222.937C262.959 219.736 270.216 209.6 271.406 207.418C273.855 202.928 279.566 196.739 272.222 194.771C269.559 194.058 266.537 198.394 265.228 200.617C259.993 209.507 256.614 214.605 253.141 217.963L257.001 203.559C258.288 198.757 259.574 193.955 254.773 192.669C250.931 191.64 249.113 194.583 248.685 196.184C247.769 202.8 244.464 217.697 238.564 224.35C237.573 225.467 236.773 226.559 236.134 227.61C232.965 232.821 233.73 237.066 234.705 238.755Z" fill="#E1C79F"/>
<path d="M262.101 222.937C262.959 219.736 270.216 209.6 271.406 207.418C273.855 202.928 279.566 196.739 272.222 194.771C269.559 194.058 266.537 198.394 265.228 200.617C259.993 209.507 256.614 214.605 253.141 217.963C253.999 214.762 255.972 207.4 257.001 203.559C258.288 198.757 259.574 193.955 254.773 192.669C250.931 191.64 249.113 194.583 248.685 196.184C247.769 202.8 244.464 217.697 238.564 224.35C237.573 225.467 236.773 226.559 236.134 227.61M262.101 222.937C260.436 224.058 256.64 226.735 254.773 228.481M262.101 222.937C263.077 224.627 264.378 226.88 265.228 229.393M234.705 238.755C237.634 243.828 246.536 252.218 258.712 245.188C262.199 243.175 264.207 240.906 265.228 238.574M234.705 238.755C233.73 237.066 232.965 232.821 236.134 227.61M234.705 238.755C237.982 238.023 247.676 238.007 253.141 235.468M236.134 227.61C239.996 227.12 250.228 226.763 254.773 228.481M257.41 233.149C259.896 230.664 256.147 229.001 254.773 228.481M257.41 233.149C257.41 233.149 255.448 234.397 253.141 235.468M257.41 233.149L265.228 229.393M265.228 238.574C264.747 237.483 261.657 235.335 253.141 235.468M265.228 238.574C266.586 235.475 266.201 232.264 265.228 229.393" stroke="#926851" stroke-width="4" stroke-linecap="round" stroke-linejoin="round"/>
<g style="mix-blend-mode:multiply">
<path d="M83.5945 26.6237C109.335 0.140803 137.969 1.08721 154.822 2.66357C157.887 2.66361 165.854 4.55531 173.208 12.1219C179.337 8.96913 206.014 1.86092 221.488 7.70745C258.26 21.6006 263.803 26.3348 273.28 54.7403C279.677 73.9147 285.991 66.8162 304.224 92.831C320.663 116.286 327.66 141.257 322.921 160.194C317.782 180.734 305.697 206.022 314.762 248.584C321.856 281.886 288.944 302.307 276.687 303.884C279.407 285.753 251.046 277.888 221.488 281.341C192.029 284.783 154.073 276.612 138.752 271.883C124.043 279.45 120.366 287.647 120.366 290.799C65.2087 286.07 46.8229 252.967 46.8229 252.967C46.8229 252.967 35.0894 275.327 37.6299 290.799C28.437 282.918 1.99995 253.921 2 233.626C2.00009 197.906 24.0638 193.089 19.6779 168.362C15.5895 145.313 10.0513 97.5601 37.63 73.9147C65.2087 50.2692 51.4193 59.7273 83.5945 26.6237Z" fill="#FFA3A3" fill-opacity="0.25"/>
</g>
</svg>
