<svg width="880" height="477" viewBox="0 0 880 477" fill="none" xmlns="http://www.w3.org/2000/svg">
<path d="M27.7976 17.2697V47H23.85V33.9647H8.26526V47H4.27655V17.2697H8.26526V30.1816H23.85V17.2697H27.7976ZM35.4162 29.976H39.2404V47H35.4162V29.976ZM35.1283 23.8079C35.1283 23.2048 35.3613 22.6977 35.8274 22.2865C36.3208 21.8753 36.8554 21.6697 37.4311 21.6697C38.0068 21.6697 38.5139 21.8753 38.9525 22.2865C39.4186 22.6977 39.6516 23.2048 39.6516 23.8079C39.6516 24.4384 39.4186 24.9593 38.9525 25.3705C38.5139 25.7543 38.0068 25.9462 37.4311 25.9462C36.8554 25.9462 36.3208 25.7406 35.8274 25.3294C35.3613 24.9182 35.1283 24.411 35.1283 23.8079ZM49.3111 43.4225C48.708 44.848 48.1049 46.2598 47.5018 47.6579C46.9261 49.0834 46.3367 50.5227 45.7336 51.9756H42.6495C43.1978 50.5227 43.7324 49.0834 44.2532 47.6579C44.7741 46.2598 45.3087 44.848 45.857 43.4225H49.3111ZM70.6335 29.976L70.9624 33.8003L70.7979 33.4713C71.4285 32.1828 72.3194 31.1685 73.4708 30.4284C74.6496 29.6882 75.9929 29.3181 77.5006 29.3181C78.4601 29.3181 79.3099 29.4689 80.0501 29.7704C80.7903 30.072 81.3934 30.5106 81.8594 31.0863C82.3529 31.6346 82.6681 32.3199 82.8052 33.1423L82.5996 33.2657C83.2575 32.0321 84.1622 31.0726 85.3135 30.3872C86.4923 29.6745 87.726 29.3181 89.0144 29.3181C90.6866 29.3181 92.0025 29.7978 92.962 30.7573C93.9489 31.6894 94.456 32.9093 94.4835 34.4171V47H90.6592V35.7741C90.6318 34.8968 90.4125 34.1703 90.0013 33.5947C89.6175 32.9916 88.9322 32.6626 87.9453 32.6078C86.9584 32.6078 86.0674 32.9093 85.2724 33.5124C84.5048 34.1155 83.9017 34.8968 83.4631 35.8563C83.0245 36.7884 82.7915 37.8027 82.7641 38.8992V47H78.9398V35.7741C78.9124 34.8968 78.6794 34.1703 78.2408 33.5947C77.8296 32.9916 77.1305 32.6626 76.1436 32.6078C75.1293 32.6078 74.2384 32.9093 73.4708 33.5124C72.7032 34.1155 72.1001 34.8968 71.6615 35.8563C71.2503 36.8158 71.0447 37.8438 71.0447 38.9403V47H67.2204V29.976H70.6335ZM102.512 55.183L113.738 29.976H117.274L106.295 55.183H102.512ZM106.706 47.1234L98.5232 29.976H102.841L109.708 45.1907L106.706 47.1234ZM137.816 29.976L138.145 34.1292L137.98 33.4713C138.529 32.2103 139.42 31.2097 140.653 30.4695C141.887 29.7019 143.312 29.3181 144.93 29.3181C146.547 29.3181 147.863 29.7978 148.877 30.7573C149.919 31.6894 150.454 32.9093 150.481 34.4171V47H146.616V35.7741C146.588 34.842 146.314 34.0881 145.793 33.5124C145.3 32.9093 144.519 32.6078 143.45 32.6078C142.463 32.6078 141.572 32.8819 140.777 33.4302C139.982 33.9784 139.351 34.7323 138.885 35.6918C138.447 36.6513 138.227 37.7616 138.227 39.0226V47H134.403V29.976H137.816ZM164.205 47.4112C162.615 47.4112 161.162 47.0685 159.846 46.3832C158.557 45.6978 157.529 44.6972 156.762 43.3814C156.022 42.0381 155.651 40.407 155.651 38.488C155.651 36.5965 156.049 34.9653 156.844 33.5947C157.639 32.1966 158.694 31.1274 160.01 30.3872C161.354 29.6471 162.82 29.277 164.41 29.277C166 29.277 167.343 29.6471 168.44 30.3872C169.537 31.1 170.373 31.9498 170.948 32.9367L170.702 33.5947L171.072 29.976H174.608V47H170.784V42.559L171.195 43.5459C171.085 43.82 170.839 44.1764 170.455 44.615C170.099 45.0262 169.605 45.4511 168.975 45.8897C168.371 46.3284 167.672 46.6984 166.877 47C166.082 47.2741 165.191 47.4112 164.205 47.4112ZM165.233 44.2449C166.192 44.2449 167.056 44.0667 167.823 43.7103C168.591 43.354 169.221 42.8605 169.715 42.23C170.236 41.5721 170.592 40.7908 170.784 39.8861V36.5553C170.565 35.7329 170.181 35.0202 169.632 34.4171C169.084 33.7866 168.426 33.3068 167.659 32.9778C166.891 32.6215 166.041 32.4433 165.109 32.4433C164.095 32.4433 163.163 32.69 162.313 33.1834C161.463 33.6769 160.778 34.3622 160.257 35.2395C159.764 36.1167 159.517 37.1447 159.517 38.3235C159.517 39.4201 159.777 40.4207 160.298 41.3253C160.819 42.23 161.518 42.9428 162.395 43.4636C163.272 43.9845 164.218 44.2449 165.233 44.2449ZM184.639 29.976L184.968 33.8003L184.803 33.4713C185.434 32.1828 186.325 31.1685 187.476 30.4284C188.655 29.6882 189.998 29.3181 191.506 29.3181C192.466 29.3181 193.315 29.4689 194.056 29.7704C194.796 30.072 195.399 30.5106 195.865 31.0863C196.358 31.6346 196.674 32.3199 196.811 33.1423L196.605 33.2657C197.263 32.0321 198.168 31.0726 199.319 30.3872C200.498 29.6745 201.731 29.3181 203.02 29.3181C204.692 29.3181 206.008 29.7978 206.968 30.7573C207.954 31.6894 208.462 32.9093 208.489 34.4171V47H204.665V35.7741C204.637 34.8968 204.418 34.1703 204.007 33.5947C203.623 32.9916 202.938 32.6626 201.951 32.6078C200.964 32.6078 200.073 32.9093 199.278 33.5124C198.51 34.1155 197.907 34.8968 197.469 35.8563C197.03 36.7884 196.797 37.8027 196.77 38.8992V47H192.945V35.7741C192.918 34.8968 192.685 34.1703 192.246 33.5947C191.835 32.9916 191.136 32.6626 190.149 32.6078C189.135 32.6078 188.244 32.9093 187.476 33.5124C186.709 34.1155 186.106 34.8968 185.667 35.8563C185.256 36.8158 185.05 37.8438 185.05 38.9403V47H181.226V29.976H184.639ZM223.054 47.4112C221.107 47.4112 219.435 47.0274 218.037 46.2598C216.639 45.4648 215.556 44.3957 214.788 43.0524C214.048 41.6817 213.678 40.1191 213.678 38.3647C213.678 36.6924 214.103 35.1709 214.953 33.8003C215.803 32.4296 216.94 31.333 218.366 30.5106C219.791 29.6882 221.381 29.277 223.136 29.277C225.384 29.277 227.248 29.9349 228.728 31.2508C230.209 32.5666 231.209 34.3759 231.73 36.6787L217.708 41.6132L216.803 39.3516L228.317 35.1572L227.495 35.6918C227.166 34.7872 226.618 34.0059 225.85 33.3479C225.082 32.6626 224.082 32.3199 222.848 32.3199C221.806 32.3199 220.874 32.5803 220.052 33.1012C219.229 33.5947 218.585 34.28 218.119 35.1572C217.653 36.0345 217.42 37.0351 217.42 38.1591C217.42 39.3378 217.667 40.3796 218.16 41.2842C218.654 42.1615 219.325 42.8605 220.175 43.3814C221.053 43.8748 222.039 44.1216 223.136 44.1216C223.876 44.1216 224.589 43.9845 225.274 43.7103C225.987 43.4362 226.645 43.0798 227.248 42.6412L229.016 45.4785C228.166 46.0542 227.207 46.5203 226.138 46.8766C225.096 47.233 224.068 47.4112 223.054 47.4112ZM249.533 29.976H253.357V47H249.533V29.976ZM249.245 23.8079C249.245 23.2048 249.478 22.6977 249.944 22.2865C250.438 21.8753 250.972 21.6697 251.548 21.6697C252.123 21.6697 252.631 21.8753 253.069 22.2865C253.535 22.6977 253.768 23.2048 253.768 23.8079C253.768 24.4384 253.535 24.9593 253.069 25.3705C252.631 25.7543 252.123 25.9462 251.548 25.9462C250.972 25.9462 250.438 25.7406 249.944 25.3294C249.478 24.9182 249.245 24.411 249.245 23.8079ZM264.744 47.329C263.537 47.329 262.359 47.1234 261.207 46.7122C260.083 46.2735 259.151 45.6293 258.411 44.7795L260.015 42.559C260.728 43.2443 261.454 43.7652 262.194 44.1216C262.962 44.4505 263.716 44.615 264.456 44.615C265.004 44.615 265.511 44.5465 265.977 44.4094C266.443 44.2723 266.813 44.053 267.088 43.7515C267.389 43.4225 267.54 42.9839 267.54 42.4356C267.54 41.8325 267.334 41.3528 266.923 40.9964C266.539 40.64 266.032 40.3522 265.402 40.1328C264.798 39.9135 264.154 39.7079 263.469 39.516C262.071 39.05 261.002 38.4058 260.262 37.5834C259.521 36.7609 259.151 35.7603 259.151 34.5816C259.151 33.6769 259.371 32.8408 259.809 32.0732C260.275 31.2782 260.947 30.634 261.824 30.1405C262.729 29.6471 263.839 29.4003 265.155 29.4003C266.334 29.4003 267.389 29.5511 268.321 29.8527C269.253 30.1268 270.13 30.5928 270.953 31.2508L269.431 33.6358C268.938 33.1149 268.349 32.7311 267.663 32.4844C266.978 32.2377 266.361 32.1006 265.813 32.0732C265.347 32.0458 264.894 32.1143 264.456 32.2788C264.045 32.4433 263.702 32.6763 263.428 32.9778C263.154 33.2794 263.017 33.6358 263.017 34.047C263.017 34.6227 263.208 35.0887 263.592 35.4451C263.976 35.8015 264.47 36.0893 265.073 36.3086C265.703 36.5005 266.32 36.7061 266.923 36.9254C267.773 37.1722 268.527 37.5011 269.185 37.9123C269.843 38.3235 270.363 38.8307 270.747 39.4338C271.158 40.0369 271.364 40.7908 271.364 41.6954C271.364 42.7097 271.117 43.6555 270.624 44.5328C270.158 45.3826 269.431 46.0679 268.445 46.5888C267.485 47.0822 266.251 47.329 264.744 47.329Z" fill="black"/>
<rect y="99.0707" width="875.871" height="221.671" fill="#F77F64"/>
<rect x="27.3297" y="77.7406" width="821.211" height="215.671" stroke="black" stroke-width="6"/>
<path d="M150.468 228.785L99.9887 183.19L103.879 185.361L104.15 226.071H90.8517V156.865H91.3945L140.789 202.278L137.894 201.012L137.622 159.488H150.83V228.785H150.468ZM167.977 159.488H181.095V226.071H167.977V159.488ZM248.216 220.552C247.493 221.155 246.136 221.97 244.146 222.995C242.216 224.02 239.833 224.925 236.999 225.709C234.164 226.493 231.028 226.855 227.59 226.794C222.343 226.674 217.639 225.739 213.478 223.99C209.377 222.181 205.879 219.738 202.984 216.662C200.149 213.586 197.978 210.058 196.47 206.078C194.962 202.097 194.209 197.845 194.209 193.322C194.209 188.256 194.962 183.612 196.47 179.39C198.038 175.169 200.24 171.52 203.074 168.444C205.969 165.368 209.407 162.986 213.387 161.297C217.368 159.609 221.77 158.764 226.595 158.764C231.058 158.764 235.008 159.367 238.446 160.574C241.884 161.78 244.688 163.077 246.859 164.464L241.703 176.857C240.195 175.712 238.175 174.535 235.642 173.329C233.169 172.063 230.304 171.43 227.048 171.43C224.514 171.43 222.072 171.972 219.72 173.058C217.428 174.083 215.377 175.561 213.568 177.491C211.819 179.421 210.432 181.682 209.407 184.276C208.381 186.809 207.869 189.583 207.869 192.598C207.869 195.795 208.321 198.72 209.226 201.374C210.191 204.027 211.548 206.319 213.297 208.249C215.046 210.119 217.126 211.566 219.539 212.591C222.012 213.617 224.786 214.129 227.862 214.129C231.42 214.129 234.466 213.556 236.999 212.41C239.532 211.264 241.462 210.058 242.789 208.792L248.216 220.552ZM257.287 192.87C257.287 188.286 258.162 183.944 259.911 179.843C261.66 175.742 264.072 172.123 267.148 168.987C270.284 165.79 273.903 163.288 278.004 161.478C282.105 159.669 286.507 158.764 291.212 158.764C295.856 158.764 300.228 159.669 304.329 161.478C308.43 163.288 312.049 165.79 315.185 168.987C318.381 172.123 320.854 175.742 322.603 179.843C324.412 183.944 325.317 188.286 325.317 192.87C325.317 197.574 324.412 201.977 322.603 206.078C320.854 210.179 318.381 213.798 315.185 216.934C312.049 220.009 308.43 222.422 304.329 224.171C300.228 225.92 295.856 226.794 291.212 226.794C286.507 226.794 282.105 225.92 278.004 224.171C273.903 222.422 270.284 220.009 267.148 216.934C264.072 213.798 261.66 210.179 259.911 206.078C258.162 201.977 257.287 197.574 257.287 192.87ZM270.857 192.87C270.857 195.825 271.37 198.599 272.395 201.193C273.48 203.726 274.958 205.987 276.828 207.978C278.758 209.908 280.959 211.415 283.432 212.501C285.965 213.586 288.709 214.129 291.664 214.129C294.499 214.129 297.122 213.586 299.534 212.501C302.007 211.415 304.148 209.908 305.958 207.978C307.767 205.987 309.184 203.726 310.209 201.193C311.235 198.599 311.747 195.825 311.747 192.87C311.747 189.854 311.205 187.05 310.119 184.457C309.094 181.863 307.646 179.602 305.777 177.672C303.967 175.681 301.826 174.143 299.354 173.058C296.881 171.972 294.197 171.43 291.302 171.43C288.407 171.43 285.723 171.972 283.251 173.058C280.778 174.143 278.607 175.681 276.737 177.672C274.868 179.602 273.42 181.863 272.395 184.457C271.37 187.05 270.857 189.854 270.857 192.87ZM338.395 159.488H351.513V213.406H382.814V226.071H338.395V159.488ZM396.35 159.488H441.763V172.153H409.467V186.356H438.054V199.021H409.467V213.406H443.03V226.071H396.35V159.488ZM486.02 159.488H499.137V213.406H530.438V226.071H486.02V159.488ZM538.048 192.87C538.048 188.286 538.923 183.944 540.672 179.843C542.421 175.742 544.833 172.123 547.909 168.987C551.045 165.79 554.664 163.288 558.765 161.478C562.866 159.669 567.269 158.764 571.973 158.764C576.617 158.764 580.989 159.669 585.09 161.478C589.191 163.288 592.81 165.79 595.946 168.987C599.143 172.123 601.615 175.742 603.364 179.843C605.174 183.944 606.078 188.286 606.078 192.87C606.078 197.574 605.174 201.977 603.364 206.078C601.615 210.179 599.143 213.798 595.946 216.934C592.81 220.009 589.191 222.422 585.09 224.171C580.989 225.92 576.617 226.794 571.973 226.794C567.269 226.794 562.866 225.92 558.765 224.171C554.664 222.422 551.045 220.009 547.909 216.934C544.833 213.798 542.421 210.179 540.672 206.078C538.923 201.977 538.048 197.574 538.048 192.87ZM551.618 192.87C551.618 195.825 552.131 198.599 553.156 201.193C554.242 203.726 555.719 205.987 557.589 207.978C559.519 209.908 561.72 211.415 564.193 212.501C566.726 213.586 569.47 214.129 572.425 214.129C575.26 214.129 577.883 213.586 580.296 212.501C582.768 211.415 584.909 209.908 586.719 207.978C588.528 205.987 589.945 203.726 590.971 201.193C591.996 198.599 592.508 195.825 592.508 192.87C592.508 189.854 591.966 187.05 590.88 184.457C589.855 181.863 588.407 179.602 586.538 177.672C584.728 175.681 582.587 174.143 580.115 173.058C577.642 171.972 574.958 171.43 572.063 171.43C569.168 171.43 566.485 171.972 564.012 173.058C561.539 174.143 559.368 175.681 557.498 177.672C555.629 179.602 554.181 181.863 553.156 184.457C552.131 187.05 551.618 189.854 551.618 192.87ZM639.33 159.488C644.818 159.488 649.462 160.423 653.262 162.292C657.061 164.102 659.956 166.695 661.946 170.073C663.937 173.39 664.932 177.34 664.932 181.924C664.932 184.637 664.51 187.382 663.665 190.156C662.881 192.87 661.585 195.343 659.775 197.574C658.026 199.806 655.644 201.615 652.628 203.002C649.673 204.329 646.024 204.992 641.682 204.992H632.274V226.071H619.156V159.488H639.33ZM641.592 192.237C643.582 192.237 645.24 191.905 646.567 191.241C647.894 190.518 648.919 189.643 649.643 188.618C650.427 187.532 650.97 186.417 651.271 185.271C651.633 184.125 651.814 183.13 651.814 182.285C651.814 181.622 651.694 180.747 651.452 179.662C651.271 178.516 650.849 177.37 650.186 176.224C649.522 175.078 648.497 174.113 647.11 173.329C645.783 172.545 643.974 172.153 641.682 172.153H632.274V192.237H641.592ZM676.669 159.488H722.083V172.153H689.786V186.356H718.374V199.021H689.786V213.406H723.349V226.071H676.669V159.488ZM732.397 226.071C732.397 226.071 732.91 225.256 733.935 223.628C734.96 222 736.317 219.829 738.006 217.115C739.755 214.401 741.685 211.325 743.796 207.887C745.967 204.449 748.168 200.921 750.4 197.303C752.692 193.684 754.893 190.156 757.004 186.718C759.175 183.28 761.105 180.205 762.794 177.491C764.543 174.777 765.93 172.606 766.955 170.977C767.98 169.349 768.493 168.535 768.493 168.535L769.94 172.153H745.967C744.7 172.153 743.374 171.882 741.986 171.339C740.66 170.736 739.514 169.952 738.549 168.987C737.644 167.962 737.192 166.846 737.192 165.64V156.141H749.224V157.407C749.224 158.734 749.435 159.428 749.857 159.488C750.279 159.488 751.033 159.488 752.119 159.488H789.119L754.018 214.853L753.295 213.406H789.029V226.071H732.397Z" fill="white"/>
<path d="M438.829 280.592C439.036 279.266 440.946 279.266 441.154 280.592L442.348 288.221C442.485 289.099 443.106 289.825 443.953 290.097L450.021 292.047C451.11 292.397 451.11 293.938 450.021 294.288L443.953 296.237C443.106 296.509 442.485 297.236 442.348 298.114L441.154 305.743C440.946 307.069 439.036 307.069 438.829 305.743L437.635 298.114C437.497 297.236 436.876 296.509 436.03 296.237L429.962 294.288C428.873 293.938 428.873 292.397 429.962 292.047L436.03 290.097C436.876 289.825 437.497 289.099 437.635 288.221L438.829 280.592Z" fill="white"/>
<path d="M4.27655 356.459H8.26526V386.19H4.27655V356.459ZM15.9009 362.998L13.9682 362.011C14.5439 361.462 14.9962 360.708 15.3252 359.749C15.6815 358.789 15.7638 357.83 15.5719 356.871L18.6148 356.583C18.7793 357.35 18.7519 358.159 18.5326 359.009C18.3133 359.831 17.9706 360.599 17.5046 361.312C17.0385 362.024 16.504 362.586 15.9009 362.998ZM26.8624 369.166L27.1914 372.99L27.0269 372.661C27.6574 371.372 28.5484 370.358 29.6997 369.618C30.8785 368.878 32.2218 368.508 33.7296 368.508C34.6891 368.508 35.5389 368.658 36.279 368.96C37.0192 369.262 37.6223 369.7 38.0884 370.276C38.5818 370.824 38.8971 371.509 39.0341 372.332L38.8285 372.455C39.4865 371.222 40.3911 370.262 41.5425 369.577C42.7213 368.864 43.9549 368.508 45.2434 368.508C46.9156 368.508 48.2315 368.987 49.1909 369.947C50.1778 370.879 50.685 372.099 50.7124 373.607V386.19H46.8882V374.964C46.8608 374.086 46.6415 373.36 46.2303 372.784C45.8465 372.181 45.1611 371.852 44.1742 371.797C43.1873 371.797 42.2964 372.099 41.5014 372.702C40.7338 373.305 40.1307 374.086 39.6921 375.046C39.2534 375.978 39.0204 376.992 38.993 378.089V386.19H35.1688V374.964C35.1414 374.086 34.9084 373.36 34.4697 372.784C34.0585 372.181 33.3595 371.852 32.3726 371.797C31.3583 371.797 30.4673 372.099 29.6997 372.702C28.9322 373.305 28.329 374.086 27.8904 375.046C27.4792 376.005 27.2736 377.033 27.2736 378.13V386.19H23.4494V369.166H26.8624ZM77.4656 386.601C75.8756 386.601 74.4227 386.258 73.1068 385.573C71.8184 384.887 70.7903 383.887 70.0228 382.571C69.2826 381.228 68.9125 379.597 68.9125 377.678C68.9125 375.786 69.31 374.155 70.105 372.784C70.9 371.386 71.9554 370.317 73.2713 369.577C74.6146 368.837 76.0812 368.467 77.6712 368.467C79.2612 368.467 80.6045 368.837 81.701 369.577C82.7976 370.29 83.6337 371.139 84.2094 372.126L83.9627 372.784L84.3328 369.166H87.8691V386.19H84.0449V381.749L84.4561 382.735C84.3465 383.01 84.0997 383.366 83.7159 383.805C83.3596 384.216 82.8661 384.641 82.2356 385.079C81.6325 385.518 80.9334 385.888 80.1384 386.19C79.3434 386.464 78.4525 386.601 77.4656 386.601ZM78.4936 383.434C79.4531 383.434 80.3166 383.256 81.0842 382.9C81.8518 382.544 82.4823 382.05 82.9758 381.42C83.4966 380.762 83.853 379.98 84.0449 379.076V375.745C83.8256 374.923 83.4418 374.21 82.8935 373.607C82.3453 372.976 81.6873 372.496 80.9197 372.167C80.1522 371.811 79.3023 371.633 78.3703 371.633C77.3559 371.633 76.4239 371.88 75.574 372.373C74.7242 372.866 74.0389 373.552 73.518 374.429C73.0246 375.306 72.7778 376.334 72.7778 377.513C72.7778 378.61 73.0383 379.61 73.5591 380.515C74.08 381.42 74.779 382.132 75.6563 382.653C76.5335 383.174 77.4793 383.434 78.4936 383.434ZM790.943 369.166L795.96 380.638L795.22 380.721L799.907 369.166H803.649L795.836 387.218L790.367 375.539L785.392 387.218L777.497 369.166H781.238L786.543 381.173L785.227 380.926L789.01 372.126L787.653 369.166H790.943ZM807.754 386.19V354.362H811.496V373.113L811.414 372.414C811.99 371.29 812.867 370.358 814.046 369.618C815.252 368.878 816.664 368.508 818.281 368.508C819.899 368.508 821.214 368.987 822.229 369.947C823.271 370.879 823.805 372.099 823.832 373.607V386.19H819.967V374.964C819.94 374.032 819.666 373.278 819.145 372.702C818.651 372.099 817.87 371.797 816.801 371.797C815.814 371.797 814.923 372.085 814.128 372.661C813.333 373.209 812.702 373.963 812.236 374.923C811.798 375.882 811.579 376.979 811.579 378.212V386.19H807.754ZM829.003 377.513C829.003 375.813 829.4 374.278 830.195 372.908C831.018 371.537 832.142 370.454 833.567 369.659C834.993 368.864 836.61 368.467 838.419 368.467C840.283 368.467 841.915 368.864 843.313 369.659C844.711 370.454 845.794 371.537 846.561 372.908C847.329 374.278 847.713 375.813 847.713 377.513C847.713 379.213 847.329 380.762 846.561 382.16C845.794 383.53 844.697 384.613 843.272 385.408C841.873 386.203 840.242 386.601 838.378 386.601C836.569 386.601 834.952 386.231 833.526 385.491C832.128 384.723 831.018 383.668 830.195 382.324C829.4 380.954 829.003 379.35 829.003 377.513ZM832.827 377.554C832.827 378.651 833.074 379.651 833.567 380.556C834.061 381.433 834.718 382.132 835.541 382.653C836.391 383.174 837.323 383.434 838.337 383.434C839.406 383.434 840.352 383.174 841.174 382.653C842.024 382.132 842.682 381.433 843.148 380.556C843.614 379.651 843.847 378.651 843.847 377.554C843.847 376.458 843.614 375.471 843.148 374.594C842.682 373.689 842.024 372.976 841.174 372.455C840.352 371.907 839.406 371.633 838.337 371.633C837.295 371.633 836.35 371.907 835.5 372.455C834.677 373.004 834.019 373.73 833.526 374.635C833.06 375.512 832.827 376.485 832.827 377.554ZM10.4035 448.601C8.81353 448.601 7.3606 448.258 6.04474 447.573C4.75629 446.887 3.72828 445.887 2.96069 444.571C2.22052 443.228 1.85043 441.597 1.85043 439.678C1.85043 437.786 2.24793 436.155 3.04293 434.784C3.83793 433.386 4.89336 432.317 6.20922 431.577C7.5525 430.837 9.01914 430.467 10.6091 430.467C12.1991 430.467 13.5424 430.837 14.639 431.577C15.7355 432.29 16.5716 433.139 17.1473 434.126L16.9006 434.784L17.2707 431.166H20.8071V448.19H16.9828V443.749L17.3941 444.735C17.2844 445.01 17.0377 445.366 16.6539 445.805C16.2975 446.216 15.8041 446.641 15.1735 447.079C14.5704 447.518 13.8714 447.888 13.0764 448.19C12.2814 448.464 11.3904 448.601 10.4035 448.601ZM11.4316 445.434C12.391 445.434 13.2546 445.256 14.0222 444.9C14.7897 444.544 15.4203 444.05 15.9137 443.42C16.4346 442.762 16.7909 441.98 16.9828 441.076V437.745C16.7635 436.923 16.3797 436.21 15.8315 435.607C15.2832 434.976 14.6253 434.496 13.8577 434.167C13.0901 433.811 12.2403 433.633 11.3082 433.633C10.2939 433.633 9.36181 433.88 8.51198 434.373C7.66216 434.866 6.97681 435.552 6.45595 436.429C5.9625 437.306 5.71578 438.334 5.71578 439.513C5.71578 440.61 5.97621 441.61 6.49707 442.515C7.01793 443.42 7.71698 444.132 8.59422 444.653C9.47147 445.174 10.4172 445.434 11.4316 445.434ZM27.4249 431.166H31.2492V448.19H27.4249V431.166ZM27.1371 424.998C27.1371 424.394 27.3701 423.887 27.8361 423.476C28.3296 423.065 28.8642 422.859 29.4398 422.859C30.0155 422.859 30.5227 423.065 30.9613 423.476C31.4273 423.887 31.6604 424.394 31.6604 424.998C31.6604 425.628 31.4273 426.149 30.9613 426.56C30.5227 426.944 30.0155 427.136 29.4398 427.136C28.8642 427.136 28.3296 426.93 27.8361 426.519C27.3701 426.108 27.1371 425.601 27.1371 424.998ZM41.2787 431.166L41.6077 434.99L41.4432 434.661C42.0737 433.372 42.9647 432.358 44.1161 431.618C45.2949 430.878 46.6381 430.508 48.1459 430.508C49.1054 430.508 49.9552 430.658 50.6954 430.96C51.4356 431.262 52.0387 431.7 52.5047 432.276C52.9981 432.824 53.3134 433.509 53.4505 434.332L53.2449 434.455C53.9028 433.222 54.8075 432.262 55.9588 431.577C57.1376 430.864 58.3712 430.508 59.6597 430.508C61.3319 430.508 62.6478 430.987 63.6073 431.947C64.5942 432.879 65.1013 434.099 65.1287 435.607V448.19H61.3045V436.964C61.2771 436.086 61.0578 435.36 60.6466 434.784C60.2628 434.181 59.5775 433.852 58.5906 433.797C57.6037 433.797 56.7127 434.099 55.9177 434.702C55.1501 435.305 54.547 436.086 54.1084 437.046C53.6698 437.978 53.4368 438.992 53.4094 440.089V448.19H49.5851V436.964C49.5577 436.086 49.3247 435.36 48.8861 434.784C48.4749 434.181 47.7758 433.852 46.7889 433.797C45.7746 433.797 44.8837 434.099 44.1161 434.702C43.3485 435.305 42.7454 436.086 42.3068 437.046C41.8956 438.005 41.69 439.033 41.69 440.13V448.19H37.8657V431.166H41.2787ZM76.5683 448.519C75.3621 448.519 74.1833 448.313 73.032 447.902C71.908 447.463 70.9759 446.819 70.2357 445.969L71.8395 443.749C72.5522 444.434 73.2787 444.955 74.0189 445.311C74.7864 445.64 75.5403 445.805 76.2805 445.805C76.8288 445.805 77.3359 445.736 77.802 445.599C78.268 445.462 78.6381 445.243 78.9122 444.941C79.2138 444.612 79.3645 444.173 79.3645 443.625C79.3645 443.022 79.1589 442.542 78.7477 442.186C78.3639 441.83 77.8568 441.542 77.2263 441.322C76.6232 441.103 75.9789 440.898 75.2936 440.706C73.8955 440.24 72.8264 439.595 72.0862 438.773C71.346 437.951 70.9759 436.95 70.9759 435.771C70.9759 434.866 71.1952 434.03 71.6339 433.263C72.0999 432.468 72.7715 431.824 73.6488 431.33C74.5534 430.837 75.6637 430.59 76.9795 430.59C78.1583 430.59 79.2138 430.741 80.1458 431.042C81.0779 431.316 81.9551 431.782 82.7776 432.44L81.2561 434.825C80.7626 434.304 80.1732 433.921 79.4879 433.674C78.8026 433.427 78.1857 433.29 77.6375 433.263C77.1714 433.235 76.7191 433.304 76.2805 433.468C75.8693 433.633 75.5266 433.866 75.2525 434.167C74.9783 434.469 74.8413 434.825 74.8413 435.237C74.8413 435.812 75.0332 436.278 75.417 436.635C75.8007 436.991 76.2942 437.279 76.8973 437.498C77.5278 437.69 78.1446 437.896 78.7477 438.115C79.5976 438.362 80.3514 438.691 81.0094 439.102C81.6673 439.513 82.1882 440.02 82.572 440.623C82.9832 441.226 83.1888 441.98 83.1888 442.885C83.1888 443.899 82.942 444.845 82.4486 445.722C81.9826 446.572 81.2561 447.258 80.2692 447.778C79.3097 448.272 78.0761 448.519 76.5683 448.519ZM103.199 423.682H107.024V431.248H111.711V434.25H107.024V448.19H103.199V434.25H100.074V431.248H103.199V423.682ZM114.852 439.513C114.852 437.813 115.25 436.278 116.045 434.908C116.867 433.537 117.991 432.454 119.416 431.659C120.842 430.864 122.459 430.467 124.269 430.467C126.133 430.467 127.764 430.864 129.162 431.659C130.56 432.454 131.643 433.537 132.411 434.908C133.178 436.278 133.562 437.813 133.562 439.513C133.562 441.213 133.178 442.762 132.411 444.16C131.643 445.53 130.546 446.613 129.121 447.408C127.723 448.203 126.092 448.601 124.228 448.601C122.418 448.601 120.801 448.231 119.375 447.491C117.977 446.723 116.867 445.668 116.045 444.324C115.25 442.954 114.852 441.35 114.852 439.513ZM118.676 439.554C118.676 440.651 118.923 441.651 119.416 442.556C119.91 443.433 120.568 444.132 121.39 444.653C122.24 445.174 123.172 445.434 124.186 445.434C125.256 445.434 126.201 445.174 127.024 444.653C127.874 444.132 128.532 443.433 128.998 442.556C129.464 441.651 129.697 440.651 129.697 439.554C129.697 438.458 129.464 437.471 128.998 436.594C128.532 435.689 127.874 434.976 127.024 434.455C126.201 433.907 125.256 433.633 124.186 433.633C123.145 433.633 122.199 433.907 121.349 434.455C120.527 435.004 119.869 435.73 119.375 436.635C118.909 437.512 118.676 438.485 118.676 439.554ZM156.521 448.519C155.315 448.519 154.136 448.313 152.984 447.902C151.86 447.463 150.928 446.819 150.188 445.969L151.792 443.749C152.505 444.434 153.231 444.955 153.971 445.311C154.739 445.64 155.493 445.805 156.233 445.805C156.781 445.805 157.288 445.736 157.754 445.599C158.22 445.462 158.591 445.243 158.865 444.941C159.166 444.612 159.317 444.173 159.317 443.625C159.317 443.022 159.111 442.542 158.7 442.186C158.316 441.83 157.809 441.542 157.179 441.322C156.576 441.103 155.931 440.898 155.246 440.706C153.848 440.24 152.779 439.595 152.039 438.773C151.298 437.951 150.928 436.95 150.928 435.771C150.928 434.866 151.148 434.03 151.586 433.263C152.052 432.468 152.724 431.824 153.601 431.33C154.506 430.837 155.616 430.59 156.932 430.59C158.111 430.59 159.166 430.741 160.098 431.042C161.03 431.316 161.908 431.782 162.73 432.44L161.209 434.825C160.715 434.304 160.126 433.921 159.44 433.674C158.755 433.427 158.138 433.29 157.59 433.263C157.124 433.235 156.672 433.304 156.233 433.468C155.822 433.633 155.479 433.866 155.205 434.167C154.931 434.469 154.794 434.825 154.794 435.237C154.794 435.812 154.986 436.278 155.369 436.635C155.753 436.991 156.247 437.279 156.85 437.498C157.48 437.69 158.097 437.896 158.7 438.115C159.55 438.362 160.304 438.691 160.962 439.102C161.62 439.513 162.141 440.02 162.524 440.623C162.936 441.226 163.141 441.98 163.141 442.885C163.141 443.899 162.894 444.845 162.401 445.722C161.935 446.572 161.209 447.258 160.222 447.778C159.262 448.272 158.029 448.519 156.521 448.519ZM178.53 448.601C177.241 448.601 175.994 448.299 174.788 447.696C173.609 447.093 172.691 446.284 172.033 445.27L172.279 444.078V456.373H168.496V430.919H171.786L172.32 435.278L171.909 434.085C172.732 433.043 173.773 432.18 175.034 431.495C176.295 430.809 177.707 430.467 179.27 430.467C180.86 430.467 182.285 430.85 183.546 431.618C184.835 432.386 185.849 433.455 186.589 434.825C187.329 436.196 187.7 437.8 187.7 439.636C187.7 441.473 187.302 443.063 186.507 444.406C185.712 445.75 184.616 446.791 183.217 447.532C181.847 448.244 180.284 448.601 178.53 448.601ZM177.789 445.558C178.886 445.558 179.887 445.311 180.791 444.818C181.723 444.297 182.464 443.598 183.012 442.721C183.56 441.816 183.834 440.802 183.834 439.678C183.834 438.526 183.574 437.512 183.053 436.635C182.532 435.73 181.833 435.017 180.956 434.496C180.106 433.976 179.146 433.715 178.077 433.715C177.09 433.715 176.199 433.907 175.404 434.291C174.609 434.675 173.952 435.209 173.431 435.894C172.91 436.552 172.54 437.32 172.32 438.197V441.035C172.458 441.912 172.786 442.693 173.307 443.378C173.828 444.064 174.472 444.598 175.24 444.982C176.035 445.366 176.885 445.558 177.789 445.558ZM196.284 431.166L196.655 436.1L196.449 435.442C196.888 434.4 197.518 433.523 198.341 432.81C199.19 432.07 200.068 431.508 200.972 431.124C201.904 430.713 202.713 430.508 203.398 430.508L203.193 434.291C201.904 434.209 200.767 434.455 199.78 435.031C198.82 435.607 198.053 436.374 197.477 437.334C196.929 438.293 196.655 439.321 196.655 440.418V448.19H192.871V431.166H196.284ZM215.504 448.601C213.558 448.601 211.886 448.217 210.487 447.449C209.089 446.654 208.007 445.585 207.239 444.242C206.499 442.871 206.129 441.309 206.129 439.554C206.129 437.882 206.554 436.361 207.403 434.99C208.253 433.619 209.391 432.523 210.816 431.7C212.242 430.878 213.832 430.467 215.586 430.467C217.834 430.467 219.699 431.124 221.179 432.44C222.659 433.756 223.66 435.566 224.181 437.868L210.159 442.803L209.254 440.541L220.768 436.347L219.945 436.881C219.616 435.977 219.068 435.195 218.3 434.538C217.533 433.852 216.532 433.509 215.299 433.509C214.257 433.509 213.325 433.77 212.502 434.291C211.68 434.784 211.036 435.47 210.57 436.347C210.104 437.224 209.871 438.225 209.871 439.349C209.871 440.527 210.117 441.569 210.611 442.474C211.104 443.351 211.776 444.05 212.626 444.571C213.503 445.064 214.49 445.311 215.586 445.311C216.327 445.311 217.039 445.174 217.725 444.9C218.437 444.626 219.095 444.269 219.699 443.831L221.467 446.668C220.617 447.244 219.657 447.71 218.588 448.066C217.547 448.423 216.519 448.601 215.504 448.601ZM236.045 448.601C234.455 448.601 233.002 448.258 231.686 447.573C230.398 446.887 229.37 445.887 228.602 444.571C227.862 443.228 227.492 441.597 227.492 439.678C227.492 437.786 227.89 436.155 228.685 434.784C229.48 433.386 230.535 432.317 231.851 431.577C233.194 430.837 234.661 430.467 236.251 430.467C237.841 430.467 239.184 430.837 240.281 431.577C241.377 432.29 242.213 433.139 242.789 434.126L242.542 434.784L242.912 431.166H246.449V448.19H242.625V443.749L243.036 444.735C242.926 445.01 242.679 445.366 242.296 445.805C241.939 446.216 241.446 446.641 240.815 447.079C240.212 447.518 239.513 447.888 238.718 448.19C237.923 448.464 237.032 448.601 236.045 448.601ZM237.073 445.434C238.033 445.434 238.896 445.256 239.664 444.9C240.431 444.544 241.062 444.05 241.555 443.42C242.076 442.762 242.433 441.98 242.625 441.076V437.745C242.405 436.923 242.021 436.21 241.473 435.607C240.925 434.976 240.267 434.496 239.499 434.167C238.732 433.811 237.882 433.633 236.95 433.633C235.936 433.633 235.004 433.88 234.154 434.373C233.304 434.866 232.619 435.552 232.098 436.429C231.604 437.306 231.358 438.334 231.358 439.513C231.358 440.61 231.618 441.61 232.139 442.515C232.66 443.42 233.359 444.132 234.236 444.653C235.113 445.174 236.059 445.434 237.073 445.434ZM259.975 448.601C258.412 448.601 256.987 448.231 255.698 447.491C254.437 446.723 253.437 445.654 252.697 444.283C251.956 442.885 251.586 441.281 251.586 439.472C251.586 437.58 251.97 435.963 252.738 434.62C253.533 433.276 254.602 432.248 255.945 431.536C257.288 430.823 258.796 430.467 260.468 430.467C261.812 430.467 263.086 430.754 264.293 431.33C265.526 431.906 266.486 432.701 267.171 433.715L267.007 435.072V416.362H270.79V448.19H266.965V443.954L267.377 445.023C266.582 446.065 265.554 446.929 264.293 447.614C263.032 448.272 261.592 448.601 259.975 448.601ZM261.167 445.352C262.182 445.352 263.086 445.174 263.881 444.818C264.676 444.434 265.334 443.913 265.855 443.255C266.376 442.597 266.746 441.816 266.965 440.911V437.704C266.746 436.881 266.349 436.169 265.773 435.566C265.225 434.935 264.553 434.442 263.758 434.085C262.99 433.701 262.127 433.509 261.167 433.509C260.126 433.509 259.166 433.77 258.289 434.291C257.439 434.784 256.754 435.47 256.233 436.347C255.712 437.224 255.452 438.238 255.452 439.39C255.452 440.514 255.712 441.528 256.233 442.433C256.754 443.31 257.453 444.023 258.33 444.571C259.207 445.092 260.153 445.352 261.167 445.352ZM294.688 434.414C295.428 433.263 296.443 432.331 297.731 431.618C299.02 430.878 300.486 430.508 302.131 430.508C303.748 430.508 305.01 430.987 305.914 431.947C306.819 432.879 307.203 434.099 307.066 435.607L305.503 448.19H301.679L303.036 436.84C303.091 435.963 302.899 435.25 302.46 434.702C302.049 434.126 301.336 433.825 300.322 433.797C299.307 433.797 298.362 434.085 297.484 434.661C296.607 435.209 295.881 435.963 295.305 436.923C294.757 437.882 294.4 438.979 294.236 440.212L293.249 448.19H289.425L293.29 416.362H297.073L294.77 435.237L294.688 434.414ZM319.062 448.519C317.801 448.519 316.595 448.19 315.443 447.532C314.319 446.846 313.401 445.887 312.688 444.653C312.003 443.42 311.66 441.953 311.66 440.253C311.66 439.102 311.866 437.964 312.277 436.84C312.716 435.689 313.332 434.633 314.127 433.674C314.95 432.714 315.937 431.947 317.088 431.371C318.267 430.768 319.624 430.467 321.159 430.467C322.393 430.467 323.434 430.645 324.284 431.001C325.134 431.358 325.847 431.824 326.422 432.399C326.998 432.948 327.45 433.578 327.779 434.291L327.409 435.031L328.273 431.166H331.768L329.712 448.19H325.888L326.422 443.872L326.71 444.859C326.546 445.106 326.258 445.448 325.847 445.887C325.436 446.298 324.901 446.709 324.243 447.12C323.613 447.532 322.859 447.874 321.981 448.148C321.132 448.395 320.158 448.519 319.062 448.519ZM321.159 445.434C321.981 445.434 322.763 445.27 323.503 444.941C324.243 444.585 324.887 444.105 325.436 443.502C326.011 442.871 326.45 442.117 326.751 441.24L327.122 437.909C327.012 437.06 326.71 436.319 326.217 435.689C325.751 435.058 325.134 434.565 324.366 434.209C323.599 433.825 322.749 433.633 321.817 433.633C320.693 433.633 319.734 433.838 318.939 434.25C318.171 434.661 317.54 435.195 317.047 435.853C316.554 436.484 316.197 437.156 315.978 437.868C315.759 438.554 315.649 439.198 315.649 439.801C315.649 440.898 315.882 441.871 316.348 442.721C316.814 443.57 317.458 444.242 318.281 444.735C319.13 445.201 320.09 445.434 321.159 445.434ZM345.908 448.601C344.592 448.601 343.331 448.272 342.125 447.614C340.919 446.956 340.069 446.134 339.576 445.147L340.48 444.16L339.123 456.373H335.34L338.506 430.919H341.796L341.632 435.278L340.809 434.085C341.906 433.016 343.126 432.153 344.469 431.495C345.84 430.809 347.197 430.467 348.54 430.467C349.993 430.467 351.309 430.796 352.488 431.453C353.694 432.111 354.64 433.016 355.325 434.167C356.038 435.319 356.394 436.662 356.394 438.197C356.394 440.061 355.955 441.788 355.078 443.378C354.201 444.941 352.967 446.202 351.377 447.162C349.815 448.121 347.992 448.601 345.908 448.601ZM345.826 445.352C347.142 445.352 348.293 445.051 349.28 444.448C350.294 443.844 351.076 443.036 351.624 442.021C352.2 441.007 352.488 439.938 352.488 438.814C352.488 437.772 352.241 436.854 351.747 436.059C351.281 435.264 350.651 434.647 349.856 434.209C349.061 433.77 348.184 433.551 347.224 433.551C346.319 433.551 345.47 433.743 344.675 434.126C343.907 434.483 343.222 434.99 342.619 435.648C342.043 436.278 341.577 437.032 341.22 437.909L340.85 440.993C340.933 441.459 341.083 441.953 341.303 442.474C341.522 442.967 341.824 443.433 342.207 443.872C342.591 444.311 343.085 444.667 343.688 444.941C344.291 445.215 345.004 445.352 345.826 445.352ZM369.962 448.601C368.646 448.601 367.385 448.272 366.179 447.614C364.973 446.956 364.123 446.134 363.63 445.147L364.534 444.16L363.177 456.373H359.394L362.56 430.919H365.85L365.686 435.278L364.863 434.085C365.96 433.016 367.18 432.153 368.523 431.495C369.894 430.809 371.251 430.467 372.594 430.467C374.047 430.467 375.363 430.796 376.542 431.453C377.748 432.111 378.693 433.016 379.379 434.167C380.092 435.319 380.448 436.662 380.448 438.197C380.448 440.061 380.009 441.788 379.132 443.378C378.255 444.941 377.021 446.202 375.431 447.162C373.869 448.121 372.046 448.601 369.962 448.601ZM369.88 445.352C371.196 445.352 372.347 445.051 373.334 444.448C374.348 443.844 375.13 443.036 375.678 442.021C376.254 441.007 376.542 439.938 376.542 438.814C376.542 437.772 376.295 436.854 375.801 436.059C375.335 435.264 374.705 434.647 373.91 434.209C373.115 433.77 372.238 433.551 371.278 433.551C370.373 433.551 369.524 433.743 368.729 434.126C367.961 434.483 367.276 434.99 366.673 435.648C366.097 436.278 365.631 437.032 365.274 437.909L364.904 440.993C364.987 441.459 365.137 441.953 365.357 442.474C365.576 442.967 365.878 443.433 366.261 443.872C366.645 444.311 367.139 444.667 367.742 444.941C368.345 445.215 369.058 445.352 369.88 445.352ZM386.532 431.166H390.356L388.259 448.19H384.435L386.532 431.166ZM386.82 425.45C386.82 424.819 387.053 424.285 387.519 423.846C387.985 423.408 388.561 423.188 389.246 423.188C389.767 423.188 390.261 423.353 390.727 423.682C391.22 424.011 391.453 424.518 391.426 425.203C391.398 425.834 391.151 426.368 390.685 426.807C390.219 427.245 389.644 427.465 388.958 427.465C388.437 427.465 387.944 427.3 387.478 426.971C387.012 426.615 386.793 426.108 386.82 425.45ZM400.427 431.166L400.386 435.031L400.098 434.496C400.838 433.318 401.839 432.358 403.1 431.618C404.388 430.878 405.869 430.508 407.541 430.508C409.186 430.508 410.461 430.987 411.365 431.947C412.297 432.879 412.695 434.099 412.558 435.607L410.995 448.19H407.171L408.528 436.923C408.638 435.99 408.446 435.237 407.952 434.661C407.486 434.085 406.719 433.797 405.649 433.797C404.635 433.797 403.703 434.085 402.853 434.661C402.003 435.209 401.304 435.963 400.756 436.923C400.208 437.882 399.865 438.979 399.728 440.212L398.741 448.19H394.917L396.973 431.166H400.427ZM426.528 445.311C427.213 445.311 427.871 445.201 428.502 444.982C429.132 444.735 429.735 444.434 430.311 444.078L431.709 446.997C430.887 447.491 429.982 447.874 428.995 448.148C428.036 448.423 427.09 448.56 426.158 448.56C424.376 448.56 422.813 448.231 421.47 447.573C420.127 446.887 419.071 445.901 418.304 444.612C417.564 443.324 417.193 441.775 417.193 439.965C417.193 438.841 417.399 437.731 417.81 436.635C418.221 435.538 418.838 434.538 419.661 433.633C420.483 432.701 421.497 431.961 422.704 431.412C423.937 430.837 425.363 430.549 426.98 430.549C427.995 430.549 428.954 430.686 429.859 430.96C430.791 431.207 431.641 431.632 432.408 432.235C433.176 432.838 433.82 433.647 434.341 434.661C434.889 435.675 435.273 436.923 435.492 438.403L420.935 442.515L420.319 440.171L432.737 436.594L431.38 437.21C431.106 436.141 430.558 435.264 429.735 434.579C428.94 433.893 427.981 433.551 426.857 433.551C425.651 433.551 424.609 433.838 423.732 434.414C422.854 434.962 422.183 435.689 421.717 436.594C421.251 437.498 421.018 438.471 421.018 439.513C421.018 440.829 421.278 441.912 421.799 442.762C422.32 443.611 423.005 444.256 423.855 444.694C424.705 445.106 425.596 445.311 426.528 445.311ZM444.353 448.519C443.805 448.519 443.119 448.436 442.297 448.272C441.502 448.135 440.693 447.861 439.871 447.449C439.076 447.011 438.363 446.38 437.733 445.558L439.624 443.461C440.172 444.119 440.721 444.626 441.269 444.982C441.845 445.311 442.393 445.53 442.914 445.64C443.435 445.722 443.914 445.763 444.353 445.763C445.34 445.763 446.053 445.517 446.491 445.023C446.93 444.502 447.149 444.009 447.149 443.543C447.149 442.967 446.971 442.515 446.615 442.186C446.258 441.83 445.792 441.542 445.217 441.322C444.668 441.076 444.093 440.843 443.49 440.623C442.256 440.13 441.31 439.513 440.652 438.773C440.022 438.005 439.706 437.087 439.706 436.018C439.706 435.47 439.816 434.894 440.035 434.291C440.255 433.66 440.597 433.071 441.063 432.523C441.529 431.974 442.146 431.522 442.914 431.166C443.681 430.809 444.641 430.631 445.792 430.631C446.313 430.631 446.916 430.686 447.602 430.796C448.314 430.878 449.041 431.083 449.781 431.412C450.549 431.714 451.248 432.194 451.878 432.852L450.11 435.113C449.562 434.455 448.945 434.003 448.26 433.756C447.574 433.482 446.903 433.345 446.245 433.345C445.642 433.345 445.148 433.455 444.764 433.674C444.38 433.866 444.093 434.126 443.901 434.455C443.736 434.784 443.654 435.113 443.654 435.442C443.654 435.963 443.832 436.388 444.189 436.717C444.545 437.046 444.997 437.32 445.546 437.539C446.094 437.759 446.642 437.992 447.19 438.238C447.958 438.54 448.643 438.91 449.246 439.349C449.85 439.76 450.316 440.281 450.645 440.911C450.974 441.514 451.111 442.282 451.056 443.214C451.001 443.79 450.836 444.393 450.562 445.023C450.288 445.654 449.891 446.243 449.37 446.791C448.849 447.312 448.177 447.737 447.355 448.066C446.532 448.368 445.532 448.519 444.353 448.519ZM461.139 448.519C460.59 448.519 459.905 448.436 459.083 448.272C458.288 448.135 457.479 447.861 456.657 447.449C455.862 447.011 455.149 446.38 454.518 445.558L456.41 443.461C456.958 444.119 457.506 444.626 458.055 444.982C458.63 445.311 459.179 445.53 459.699 445.64C460.22 445.722 460.7 445.763 461.139 445.763C462.126 445.763 462.838 445.517 463.277 445.023C463.716 444.502 463.935 444.009 463.935 443.543C463.935 442.967 463.757 442.515 463.4 442.186C463.044 441.83 462.578 441.542 462.002 441.322C461.454 441.076 460.878 440.843 460.275 440.623C459.042 440.13 458.096 439.513 457.438 438.773C456.807 438.005 456.492 437.087 456.492 436.018C456.492 435.47 456.602 434.894 456.821 434.291C457.04 433.66 457.383 433.071 457.849 432.523C458.315 431.974 458.932 431.522 459.699 431.166C460.467 430.809 461.427 430.631 462.578 430.631C463.099 430.631 463.702 430.686 464.387 430.796C465.1 430.878 465.826 431.083 466.567 431.412C467.334 431.714 468.033 432.194 468.664 432.852L466.896 435.113C466.347 434.455 465.73 434.003 465.045 433.756C464.36 433.482 463.688 433.345 463.03 433.345C462.427 433.345 461.934 433.455 461.55 433.674C461.166 433.866 460.878 434.126 460.686 434.455C460.522 434.784 460.44 435.113 460.44 435.442C460.44 435.963 460.618 436.388 460.974 436.717C461.331 437.046 461.783 437.32 462.331 437.539C462.879 437.759 463.428 437.992 463.976 438.238C464.744 438.54 465.429 438.91 466.032 439.349C466.635 439.76 467.101 440.281 467.43 440.911C467.759 441.514 467.896 442.282 467.841 443.214C467.787 443.79 467.622 444.393 467.348 445.023C467.074 445.654 466.676 446.243 466.155 446.791C465.635 447.312 464.963 447.737 464.14 448.066C463.318 448.368 462.317 448.519 461.139 448.519ZM488.345 423.682H492.169V431.248H496.856V434.25H492.169V448.19H488.345V434.25H485.219V431.248H488.345V423.682ZM501.477 448.19V416.362H505.219V435.113L505.137 434.414C505.713 433.29 506.59 432.358 507.769 431.618C508.975 430.878 510.387 430.508 512.004 430.508C513.622 430.508 514.938 430.987 515.952 431.947C516.994 432.879 517.528 434.099 517.556 435.607V448.19H513.69V436.964C513.663 436.032 513.389 435.278 512.868 434.702C512.374 434.099 511.593 433.797 510.524 433.797C509.537 433.797 508.646 434.085 507.851 434.661C507.056 435.209 506.426 435.963 505.96 436.923C505.521 437.882 505.302 438.979 505.302 440.212V448.19H501.477ZM527.619 431.166L527.989 436.1L527.784 435.442C528.222 434.4 528.853 433.523 529.675 432.81C530.525 432.07 531.402 431.508 532.307 431.124C533.239 430.713 534.048 430.508 534.733 430.508L534.527 434.291C533.239 434.209 532.101 434.455 531.114 435.031C530.155 435.607 529.387 436.374 528.812 437.334C528.263 438.293 527.989 439.321 527.989 440.418V448.19H524.206V431.166H527.619ZM537.463 439.513C537.463 437.813 537.861 436.278 538.656 434.908C539.478 433.537 540.602 432.454 542.028 431.659C543.453 430.864 545.071 430.467 546.88 430.467C548.744 430.467 550.375 430.864 551.773 431.659C553.172 432.454 554.254 433.537 555.022 434.908C555.79 436.278 556.173 437.813 556.173 439.513C556.173 441.213 555.79 442.762 555.022 444.16C554.254 445.53 553.158 446.613 551.732 447.408C550.334 448.203 548.703 448.601 546.839 448.601C545.03 448.601 543.412 448.231 541.987 447.491C540.589 446.723 539.478 445.668 538.656 444.324C537.861 442.954 537.463 441.35 537.463 439.513ZM541.288 439.554C541.288 440.651 541.534 441.651 542.028 442.556C542.521 443.433 543.179 444.132 544.002 444.653C544.851 445.174 545.784 445.434 546.798 445.434C547.867 445.434 548.813 445.174 549.635 444.653C550.485 444.132 551.143 443.433 551.609 442.556C552.075 441.651 552.308 440.651 552.308 439.554C552.308 438.458 552.075 437.471 551.609 436.594C551.143 435.689 550.485 434.976 549.635 434.455C548.813 433.907 547.867 433.633 546.798 433.633C545.756 433.633 544.81 433.907 543.961 434.455C543.138 435.004 542.48 435.73 541.987 436.635C541.521 437.512 541.288 438.485 541.288 439.554ZM566.738 448.848C565.203 448.848 563.928 448.381 562.914 447.449C561.927 446.49 561.406 445.256 561.351 443.749V431.166H565.176V442.392C565.23 443.324 565.491 444.078 565.957 444.653C566.45 445.229 567.218 445.53 568.26 445.558C569.219 445.558 570.069 445.284 570.809 444.735C571.577 444.16 572.194 443.392 572.66 442.433C573.126 441.446 573.359 440.336 573.359 439.102V431.166H577.183V448.19H573.688L573.359 443.995L573.564 444.735C573.235 445.53 572.728 446.243 572.043 446.874C571.385 447.477 570.604 447.957 569.699 448.313C568.794 448.669 567.807 448.848 566.738 448.848ZM591.982 456.619C590.721 456.619 589.611 456.469 588.651 456.167C587.692 455.893 586.815 455.495 586.02 454.974C585.252 454.454 584.512 453.864 583.799 453.206L586.02 450.616C586.924 451.466 587.843 452.123 588.775 452.589C589.707 453.056 590.748 453.289 591.9 453.289C593.188 453.289 594.271 453.069 595.148 452.631C596.053 452.219 596.738 451.63 597.204 450.862C597.67 450.122 597.903 449.259 597.903 448.272L597.945 443.666L598.274 444.406C597.78 445.585 596.889 446.586 595.601 447.408C594.312 448.203 592.75 448.601 590.913 448.601C589.35 448.601 587.911 448.203 586.595 447.408C585.307 446.613 584.265 445.544 583.47 444.201C582.703 442.83 582.319 441.295 582.319 439.595C582.319 437.813 582.73 436.251 583.552 434.908C584.375 433.537 585.458 432.454 586.801 431.659C588.144 430.864 589.611 430.467 591.201 430.467C592.709 430.467 594.079 430.782 595.313 431.412C596.574 432.015 597.492 432.797 598.068 433.756L597.862 434.455L598.274 431.166H601.769V448.313C601.769 449.848 601.371 451.246 600.576 452.507C599.781 453.768 598.657 454.769 597.204 455.509C595.752 456.249 594.011 456.619 591.982 456.619ZM586.143 439.513C586.143 440.61 586.403 441.61 586.924 442.515C587.445 443.42 588.144 444.132 589.021 444.653C589.926 445.174 590.927 445.434 592.023 445.434C593.038 445.434 593.942 445.256 594.737 444.9C595.56 444.516 596.245 444.009 596.793 443.378C597.342 442.721 597.725 441.967 597.945 441.117V437.745C597.698 436.923 597.287 436.21 596.711 435.607C596.135 434.976 595.45 434.496 594.655 434.167C593.86 433.811 592.983 433.633 592.023 433.633C590.927 433.633 589.926 433.88 589.021 434.373C588.144 434.866 587.445 435.566 586.924 436.47C586.403 437.347 586.143 438.362 586.143 439.513ZM608.375 448.19V416.362H612.117V435.113L612.035 434.414C612.611 433.29 613.488 432.358 614.667 431.618C615.873 430.878 617.285 430.508 618.902 430.508C620.519 430.508 621.835 430.987 622.85 431.947C623.891 432.879 624.426 434.099 624.453 435.607V448.19H620.588V436.964C620.561 436.032 620.286 435.278 619.766 434.702C619.272 434.099 618.491 433.797 617.422 433.797C616.435 433.797 615.544 434.085 614.749 434.661C613.954 435.209 613.323 435.963 612.857 436.923C612.419 437.882 612.199 438.979 612.199 440.212V448.19H608.375ZM651.023 448.601C649.46 448.601 648.035 448.231 646.746 447.491C645.485 446.723 644.485 445.654 643.745 444.283C643.005 442.885 642.634 441.281 642.634 439.472C642.634 437.58 643.018 435.963 643.786 434.62C644.581 433.276 645.65 432.248 646.993 431.536C648.336 430.823 649.844 430.467 651.516 430.467C652.86 430.467 654.135 430.754 655.341 431.33C656.574 431.906 657.534 432.701 658.219 433.715L658.055 435.072V416.362H661.838V448.19H658.014V443.954L658.425 445.023C657.63 446.065 656.602 446.929 655.341 447.614C654.08 448.272 652.64 448.601 651.023 448.601ZM652.216 445.352C653.23 445.352 654.135 445.174 654.93 444.818C655.725 444.434 656.382 443.913 656.903 443.255C657.424 442.597 657.794 441.816 658.014 440.911V437.704C657.794 436.881 657.397 436.169 656.821 435.566C656.273 434.935 655.601 434.442 654.806 434.085C654.039 433.701 653.175 433.509 652.216 433.509C651.174 433.509 650.214 433.77 649.337 434.291C648.487 434.784 647.802 435.47 647.281 436.347C646.76 437.224 646.5 438.238 646.5 439.39C646.5 440.514 646.76 441.528 647.281 442.433C647.802 443.31 648.501 444.023 649.378 444.571C650.255 445.092 651.201 445.352 652.216 445.352ZM676.385 448.601C674.439 448.601 672.767 448.217 671.369 447.449C669.97 446.654 668.888 445.585 668.12 444.242C667.38 442.871 667.01 441.309 667.01 439.554C667.01 437.882 667.435 436.361 668.284 434.99C669.134 433.619 670.272 432.523 671.697 431.7C673.123 430.878 674.713 430.467 676.467 430.467C678.715 430.467 680.58 431.124 682.06 432.44C683.54 433.756 684.541 435.566 685.062 437.868L671.04 442.803L670.135 440.541L681.649 436.347L680.826 436.881C680.497 435.977 679.949 435.195 679.181 434.538C678.414 433.852 677.413 433.509 676.18 433.509C675.138 433.509 674.206 433.77 673.383 434.291C672.561 434.784 671.917 435.47 671.451 436.347C670.985 437.224 670.752 438.225 670.752 439.349C670.752 440.527 670.998 441.569 671.492 442.474C671.985 443.351 672.657 444.05 673.507 444.571C674.384 445.064 675.371 445.311 676.467 445.311C677.208 445.311 677.92 445.174 678.606 444.9C679.319 444.626 679.976 444.269 680.58 443.831L682.348 446.668C681.498 447.244 680.538 447.71 679.469 448.066C678.428 448.423 677.4 448.601 676.385 448.601ZM694.624 448.519C693.417 448.519 692.239 448.313 691.087 447.902C689.963 447.463 689.031 446.819 688.291 445.969L689.895 443.749C690.607 444.434 691.334 444.955 692.074 445.311C692.842 445.64 693.596 445.805 694.336 445.805C694.884 445.805 695.391 445.736 695.857 445.599C696.323 445.462 696.693 445.243 696.967 444.941C697.269 444.612 697.42 444.173 697.42 443.625C697.42 443.022 697.214 442.542 696.803 442.186C696.419 441.83 695.912 441.542 695.281 441.322C694.678 441.103 694.034 440.898 693.349 440.706C691.951 440.24 690.882 439.595 690.141 438.773C689.401 437.951 689.031 436.95 689.031 435.771C689.031 434.866 689.25 434.03 689.689 433.263C690.155 432.468 690.827 431.824 691.704 431.33C692.609 430.837 693.719 430.59 695.035 430.59C696.214 430.59 697.269 430.741 698.201 431.042C699.133 431.316 700.01 431.782 700.833 432.44L699.311 434.825C698.818 434.304 698.228 433.921 697.543 433.674C696.858 433.427 696.241 433.29 695.693 433.263C695.227 433.235 694.774 433.304 694.336 433.468C693.924 433.633 693.582 433.866 693.308 434.167C693.034 434.469 692.896 434.825 692.896 435.237C692.896 435.812 693.088 436.278 693.472 436.635C693.856 436.991 694.349 437.279 694.953 437.498C695.583 437.69 696.2 437.896 696.803 438.115C697.653 438.362 698.407 438.691 699.065 439.102C699.723 439.513 700.243 440.02 700.627 440.623C701.038 441.226 701.244 441.98 701.244 442.885C701.244 443.899 700.997 444.845 700.504 445.722C700.038 446.572 699.311 447.258 698.324 447.778C697.365 448.272 696.131 448.519 694.624 448.519ZM706.599 431.166H710.423V448.19H706.599V431.166ZM706.311 424.998C706.311 424.394 706.544 423.887 707.01 423.476C707.504 423.065 708.038 422.859 708.614 422.859C709.19 422.859 709.697 423.065 710.135 423.476C710.601 423.887 710.834 424.394 710.834 424.998C710.834 425.628 710.601 426.149 710.135 426.56C709.697 426.944 709.19 427.136 708.614 427.136C708.038 427.136 707.504 426.93 707.01 426.519C706.544 426.108 706.311 425.601 706.311 424.998ZM725.223 456.619C723.962 456.619 722.851 456.469 721.892 456.167C720.933 455.893 720.055 455.495 719.26 454.974C718.493 454.454 717.753 453.864 717.04 453.206L719.26 450.616C720.165 451.466 721.083 452.123 722.015 452.589C722.947 453.056 723.989 453.289 725.141 453.289C726.429 453.289 727.512 453.069 728.389 452.631C729.294 452.219 729.979 451.63 730.445 450.862C730.911 450.122 731.144 449.259 731.144 448.272L731.185 443.666L731.514 444.406C731.021 445.585 730.13 446.586 728.841 447.408C727.553 448.203 725.99 448.601 724.154 448.601C722.591 448.601 721.152 448.203 719.836 447.408C718.548 446.613 717.506 445.544 716.711 444.201C715.943 442.83 715.559 441.295 715.559 439.595C715.559 437.813 715.971 436.251 716.793 434.908C717.615 433.537 718.698 432.454 720.042 431.659C721.385 430.864 722.851 430.467 724.441 430.467C725.949 430.467 727.32 430.782 728.554 431.412C729.815 432.015 730.733 432.797 731.309 433.756L731.103 434.455L731.514 431.166H735.01V448.313C735.01 449.848 734.612 451.246 733.817 452.507C733.022 453.768 731.898 454.769 730.445 455.509C728.992 456.249 727.251 456.619 725.223 456.619ZM719.384 439.513C719.384 440.61 719.644 441.61 720.165 442.515C720.686 443.42 721.385 444.132 722.262 444.653C723.167 445.174 724.167 445.434 725.264 445.434C726.278 445.434 727.183 445.256 727.978 444.9C728.8 444.516 729.486 444.009 730.034 443.378C730.582 442.721 730.966 441.967 731.185 441.117V437.745C730.939 436.923 730.527 436.21 729.952 435.607C729.376 434.976 728.691 434.496 727.896 434.167C727.101 433.811 726.223 433.633 725.264 433.633C724.167 433.633 723.167 433.88 722.262 434.373C721.385 434.866 720.686 435.566 720.165 436.47C719.644 437.347 719.384 438.362 719.384 439.513ZM745.029 431.166L745.358 435.319L745.193 434.661C745.742 433.4 746.633 432.399 747.866 431.659C749.1 430.891 750.525 430.508 752.143 430.508C753.76 430.508 755.076 430.987 756.09 431.947C757.132 432.879 757.667 434.099 757.694 435.607V448.19H753.829V436.964C753.801 436.032 753.527 435.278 753.006 434.702C752.513 434.099 751.732 433.797 750.662 433.797C749.675 433.797 748.785 434.071 747.99 434.62C747.195 435.168 746.564 435.922 746.098 436.881C745.659 437.841 745.44 438.951 745.44 440.212V448.19H741.616V431.166H745.029Z" fill="black"/>
<path d="M108.074 386.19V354.691H108.115L124.933 378.541L122.384 377.965L139.161 354.691H139.243V386.19H133.281V368.138L133.651 371.222L123.412 385.778H123.329L112.802 371.222L113.83 368.384V386.19H108.074ZM153.686 386.683C152.014 386.683 150.493 386.354 149.122 385.696C147.779 385.011 146.71 383.969 145.915 382.571C145.12 381.173 144.722 379.391 144.722 377.225C144.722 375.197 145.133 373.442 145.956 371.962C146.778 370.481 147.861 369.344 149.204 368.549C150.547 367.726 151.973 367.315 153.481 367.315C155.263 367.315 156.606 367.617 157.511 368.22C158.443 368.796 159.21 369.44 159.813 370.153L159.567 370.852L160.101 368.22H165.447V386.19H159.69V382.283L160.142 383.517C160.087 383.517 159.923 383.681 159.649 384.01C159.375 384.312 158.963 384.682 158.415 385.12C157.894 385.532 157.236 385.888 156.441 386.19C155.674 386.519 154.755 386.683 153.686 386.683ZM155.331 381.995C156.017 381.995 156.633 381.899 157.182 381.707C157.73 381.488 158.21 381.187 158.621 380.803C159.032 380.392 159.388 379.884 159.69 379.281V374.881C159.471 374.278 159.142 373.771 158.703 373.36C158.264 372.921 157.744 372.592 157.14 372.373C156.537 372.126 155.866 372.003 155.126 372.003C154.303 372.003 153.536 372.222 152.823 372.661C152.137 373.072 151.589 373.648 151.178 374.388C150.767 375.128 150.561 375.978 150.561 376.937C150.561 377.897 150.78 378.76 151.219 379.528C151.658 380.296 152.233 380.899 152.946 381.337C153.686 381.776 154.481 381.995 155.331 381.995ZM176.56 368.22L177.095 373.154L176.971 372.414C177.492 371.345 178.205 370.44 179.11 369.7C180.014 368.933 180.905 368.343 181.782 367.932C182.687 367.521 183.372 367.315 183.838 367.315L183.551 373.072C182.207 372.908 181.056 373.127 180.096 373.73C179.137 374.333 178.397 375.128 177.876 376.115C177.355 377.102 177.095 378.116 177.095 379.158V386.19H171.379V368.22H176.56ZM188.245 386.19V353.745H194.002V386.19H188.245ZM198.566 373.977L206.708 386.19H200.005L194.783 377.266L198.566 373.977ZM192.275 381.214L191.699 375.745L202.555 367.768L206.05 370.852L192.275 381.214ZM219.092 386.683C216.899 386.683 215.034 386.272 213.499 385.449C211.992 384.627 210.84 383.489 210.045 382.036C209.25 380.583 208.853 378.911 208.853 377.02C208.853 375.21 209.319 373.579 210.251 372.126C211.183 370.673 212.43 369.522 213.993 368.672C215.555 367.795 217.296 367.356 219.215 367.356C221.792 367.356 223.903 368.11 225.548 369.618C227.22 371.098 228.303 373.25 228.796 376.074L214.815 380.515L213.54 377.39L223.656 373.977L222.464 374.511C222.244 373.799 221.847 373.182 221.271 372.661C220.723 372.113 219.887 371.838 218.763 371.838C217.913 371.838 217.159 372.044 216.501 372.455C215.871 372.839 215.377 373.401 215.021 374.141C214.692 374.854 214.527 375.704 214.527 376.691C214.527 377.815 214.733 378.76 215.144 379.528C215.555 380.268 216.117 380.83 216.83 381.214C217.543 381.598 218.338 381.79 219.215 381.79C219.846 381.79 220.449 381.68 221.024 381.461C221.627 381.241 222.217 380.954 222.793 380.597L225.342 384.874C224.383 385.422 223.341 385.861 222.217 386.19C221.12 386.519 220.079 386.683 219.092 386.683ZM234.665 360.325H240.422V368.138H244.781V372.62H240.422V386.19H234.665V372.62H231.869V368.138H234.665V360.325ZM249.163 368.22H254.92V386.19H249.163V368.22ZM249.039 361.846C249.039 360.996 249.368 360.297 250.026 359.749C250.712 359.201 251.438 358.927 252.206 358.927C252.973 358.927 253.672 359.201 254.303 359.749C254.961 360.297 255.29 360.996 255.29 361.846C255.29 362.696 254.961 363.395 254.303 363.943C253.672 364.464 252.973 364.725 252.206 364.725C251.438 364.725 250.712 364.464 250.026 363.943C249.368 363.395 249.039 362.696 249.039 361.846ZM266.071 368.22L266.523 371.427L266.441 371.139C267.071 370.015 267.962 369.111 269.114 368.425C270.265 367.713 271.677 367.356 273.349 367.356C275.049 367.356 276.461 367.863 277.585 368.878C278.736 369.865 279.325 371.153 279.353 372.743V386.19H273.596V374.881C273.568 374.086 273.349 373.456 272.938 372.99C272.554 372.496 271.896 372.25 270.964 372.25C270.087 372.25 269.319 372.538 268.661 373.113C268.003 373.689 267.496 374.47 267.14 375.457C266.784 376.444 266.605 377.582 266.605 378.87V386.19H260.848V368.22H266.071ZM294.557 395.236C292.94 395.236 291.569 395.044 290.445 394.66C289.349 394.277 288.416 393.811 287.649 393.262C286.881 392.714 286.196 392.193 285.593 391.7L288.965 387.752C289.595 388.328 290.322 388.876 291.144 389.397C291.994 389.945 293.104 390.219 294.475 390.219C295.38 390.219 296.216 390.055 296.983 389.726C297.778 389.424 298.409 388.972 298.875 388.369C299.368 387.766 299.615 387.012 299.615 386.107V382.16L299.821 383.188C299.382 384.12 298.587 384.942 297.436 385.655C296.284 386.34 294.776 386.683 292.912 386.683C291.295 386.683 289.787 386.272 288.389 385.449C287.018 384.6 285.922 383.462 285.099 382.036C284.277 380.583 283.866 378.939 283.866 377.102C283.866 375.21 284.304 373.538 285.182 372.085C286.059 370.605 287.197 369.44 288.595 368.59C289.993 367.74 291.473 367.315 293.036 367.315C294.598 367.315 295.942 367.548 297.065 368.014C298.217 368.453 299.08 369.001 299.656 369.659L299.45 370.194L300.067 368.22H305.372V386.19C305.372 387.944 304.878 389.493 303.892 390.836C302.905 392.207 301.589 393.276 299.944 394.044C298.327 394.839 296.531 395.236 294.557 395.236ZM289.664 376.937C289.664 377.897 289.883 378.76 290.322 379.528C290.76 380.296 291.35 380.899 292.09 381.337C292.857 381.776 293.707 381.995 294.639 381.995C295.434 381.995 296.133 381.899 296.737 381.707C297.367 381.488 297.915 381.187 298.381 380.803C298.875 380.392 299.286 379.884 299.615 379.281V374.881C299.368 374.278 298.998 373.771 298.505 373.36C298.011 372.921 297.436 372.592 296.778 372.373C296.147 372.126 295.434 372.003 294.639 372.003C293.707 372.003 292.857 372.222 292.09 372.661C291.35 373.072 290.76 373.648 290.322 374.388C289.883 375.128 289.664 375.978 289.664 376.937ZM351.098 386.19C350.715 386.19 350.139 386.19 349.371 386.19C348.631 386.19 347.864 386.19 347.069 386.19C346.274 386.19 345.588 386.19 345.013 386.19C344.464 386.19 344.19 386.19 344.19 386.19L330.867 368.261C330.593 367.877 330.25 367.356 329.839 366.698C329.428 366.013 329.071 365.259 328.77 364.437C328.468 363.587 328.318 362.737 328.318 361.887C328.318 360.791 328.592 359.708 329.14 358.639C329.716 357.542 330.579 356.638 331.731 355.925C332.909 355.185 334.39 354.814 336.172 354.814C338.118 354.814 339.831 355.212 341.312 356.007C342.792 356.802 343.971 357.761 344.848 358.885L341.846 362.874C340.996 361.942 340.174 361.202 339.379 360.654C338.611 360.105 337.858 359.831 337.117 359.831C336.185 359.831 335.514 360.105 335.102 360.654C334.691 361.202 334.486 361.805 334.486 362.463C334.486 362.847 334.582 363.272 334.773 363.738C334.993 364.176 335.212 364.588 335.431 364.971C335.651 365.328 335.802 365.574 335.884 365.711L351.098 386.19ZM334.445 372.414C333.787 372.414 333.17 372.551 332.594 372.825C332.018 373.072 331.511 373.415 331.073 373.853C330.634 374.292 330.291 374.785 330.045 375.334C329.825 375.882 329.716 376.458 329.716 377.061C329.716 377.911 329.921 378.664 330.332 379.322C330.771 379.953 331.36 380.446 332.101 380.803C332.841 381.159 333.65 381.337 334.527 381.337C335.431 381.337 336.172 381.214 336.747 380.967C337.35 380.693 337.844 380.337 338.228 379.898C338.639 379.459 338.968 378.98 339.215 378.459L343.039 381.625C342.299 383.023 341.161 384.216 339.626 385.203C338.118 386.19 336.144 386.683 333.704 386.683C331.813 386.683 330.099 386.286 328.564 385.491C327.029 384.696 325.809 383.599 324.905 382.201C324 380.803 323.548 379.199 323.548 377.39C323.548 376.019 323.849 374.758 324.452 373.607C325.083 372.455 325.919 371.455 326.961 370.605C328.002 369.755 329.167 369.083 330.456 368.59C331.744 368.069 333.06 367.795 334.403 367.768L334.445 372.414ZM343.409 367.768H348.837L343.738 380.597L339.42 378.048L343.409 367.768ZM369.415 355.925H375.377V386.19H369.415V355.925ZM387.465 368.22L387.917 371.427L387.835 371.139C388.466 370.015 389.357 369.111 390.508 368.425C391.659 367.713 393.071 367.356 394.744 367.356C396.443 367.356 397.855 367.863 398.979 368.878C400.13 369.865 400.72 371.153 400.747 372.743V386.19H394.99V374.881C394.963 374.086 394.744 373.456 394.332 372.99C393.949 372.496 393.291 372.25 392.359 372.25C391.481 372.25 390.714 372.538 390.056 373.113C389.398 373.689 388.891 374.47 388.534 375.457C388.178 376.444 388 377.582 388 378.87V386.19H382.243V368.22H387.465ZM408.344 360.325H414.101V368.138H418.46V372.62H414.101V386.19H408.344V372.62H405.548V368.138H408.344V360.325ZM431.682 386.683C429.489 386.683 427.625 386.272 426.09 385.449C424.582 384.627 423.431 383.489 422.636 382.036C421.841 380.583 421.443 378.911 421.443 377.02C421.443 375.21 421.909 373.579 422.841 372.126C423.774 370.673 425.021 369.522 426.583 368.672C428.146 367.795 429.887 367.356 431.806 367.356C434.383 367.356 436.494 368.11 438.138 369.618C439.811 371.098 440.893 373.25 441.387 376.074L427.406 380.515L426.131 377.39L436.247 373.977L435.054 374.511C434.835 373.799 434.438 373.182 433.862 372.661C433.314 372.113 432.477 371.838 431.353 371.838C430.504 371.838 429.75 372.044 429.092 372.455C428.461 372.839 427.968 373.401 427.611 374.141C427.283 374.854 427.118 375.704 427.118 376.691C427.118 377.815 427.324 378.76 427.735 379.528C428.146 380.268 428.708 380.83 429.421 381.214C430.134 381.598 430.929 381.79 431.806 381.79C432.436 381.79 433.039 381.68 433.615 381.461C434.218 381.241 434.808 380.954 435.383 380.597L437.933 384.874C436.973 385.422 435.932 385.861 434.808 386.19C433.711 386.519 432.669 386.683 431.682 386.683ZM450.752 368.22L451.286 373.154L451.163 372.414C451.684 371.345 452.396 370.44 453.301 369.7C454.206 368.933 455.097 368.343 455.974 367.932C456.878 367.521 457.564 367.315 458.03 367.315L457.742 373.072C456.399 372.908 455.247 373.127 454.288 373.73C453.328 374.333 452.588 375.128 452.067 376.115C451.547 377.102 451.286 378.116 451.286 379.158V386.19H445.57V368.22H450.752ZM469.4 386.683C467.728 386.683 466.206 386.354 464.836 385.696C463.492 385.011 462.423 383.969 461.628 382.571C460.833 381.173 460.436 379.391 460.436 377.225C460.436 375.197 460.847 373.442 461.669 371.962C462.492 370.481 463.575 369.344 464.918 368.549C466.261 367.726 467.687 367.315 469.194 367.315C470.976 367.315 472.32 367.617 473.224 368.22C474.156 368.796 474.924 369.44 475.527 370.153L475.28 370.852L475.815 368.22H481.161V386.19H475.404V382.283L475.856 383.517C475.801 383.517 475.637 383.681 475.363 384.01C475.088 384.312 474.677 384.682 474.129 385.12C473.608 385.532 472.95 385.888 472.155 386.19C471.388 386.519 470.469 386.683 469.4 386.683ZM471.045 381.995C471.73 381.995 472.347 381.899 472.895 381.707C473.444 381.488 473.923 381.187 474.335 380.803C474.746 380.392 475.102 379.884 475.404 379.281V374.881C475.184 374.278 474.855 373.771 474.417 373.36C473.978 372.921 473.457 372.592 472.854 372.373C472.251 372.126 471.579 372.003 470.839 372.003C470.017 372.003 469.249 372.222 468.537 372.661C467.851 373.072 467.303 373.648 466.892 374.388C466.48 375.128 466.275 375.978 466.275 376.937C466.275 377.897 466.494 378.76 466.933 379.528C467.371 380.296 467.947 380.899 468.66 381.337C469.4 381.776 470.195 381.995 471.045 381.995ZM502.348 384.586C501.553 385.216 500.553 385.724 499.347 386.107C498.168 386.491 497.003 386.683 495.851 386.683C493.795 386.683 492 386.313 490.464 385.573C488.957 384.805 487.778 383.722 486.928 382.324C486.106 380.899 485.694 379.185 485.694 377.184C485.694 375.183 486.147 373.483 487.051 372.085C487.956 370.66 489.135 369.577 490.588 368.837C492.068 368.096 493.617 367.726 495.234 367.726C496.852 367.726 498.25 367.946 499.429 368.384C500.635 368.823 501.663 369.399 502.513 370.111L499.717 373.812C499.333 373.511 498.798 373.209 498.113 372.908C497.455 372.579 496.674 372.414 495.769 372.414C494.974 372.414 494.248 372.62 493.59 373.031C492.932 373.442 492.411 374.004 492.027 374.717C491.643 375.43 491.451 376.252 491.451 377.184C491.451 378.061 491.657 378.87 492.068 379.61C492.479 380.35 493.041 380.94 493.754 381.378C494.494 381.79 495.358 381.995 496.345 381.995C496.975 381.995 497.551 381.913 498.072 381.749C498.62 381.557 499.086 381.296 499.47 380.967L502.348 384.586ZM508.455 360.325H514.212V368.138H518.571V372.62H514.212V386.19H508.455V372.62H505.659V368.138H508.455V360.325ZM522.953 368.22H528.71V386.19H522.953V368.22ZM522.829 361.846C522.829 360.996 523.158 360.297 523.816 359.749C524.502 359.201 525.228 358.927 525.996 358.927C526.763 358.927 527.462 359.201 528.093 359.749C528.751 360.297 529.08 360.996 529.08 361.846C529.08 362.696 528.751 363.395 528.093 363.943C527.462 364.464 526.763 364.725 525.996 364.725C525.228 364.725 524.502 364.464 523.816 363.943C523.158 363.395 522.829 362.696 522.829 361.846ZM542.863 386.56L532.089 368.22H538.915L545.042 380.638L541.506 380.515L546.81 368.22H553.225L543.027 386.56H542.863ZM564.843 386.683C562.65 386.683 560.786 386.272 559.25 385.449C557.743 384.627 556.591 383.489 555.796 382.036C555.001 380.583 554.604 378.911 554.604 377.02C554.604 375.21 555.07 373.579 556.002 372.126C556.934 370.673 558.181 369.522 559.744 368.672C561.306 367.795 563.047 367.356 564.966 367.356C567.543 367.356 569.654 368.11 571.299 369.618C572.971 371.098 574.054 373.25 574.547 376.074L560.566 380.515L559.291 377.39L569.407 373.977L568.215 374.511C567.995 373.799 567.598 373.182 567.022 372.661C566.474 372.113 565.638 371.838 564.514 371.838C563.664 371.838 562.91 372.044 562.252 372.455C561.622 372.839 561.128 373.401 560.772 374.141C560.443 374.854 560.278 375.704 560.278 376.691C560.278 377.815 560.484 378.76 560.895 379.528C561.306 380.268 561.868 380.83 562.581 381.214C563.294 381.598 564.089 381.79 564.966 381.79C565.597 381.79 566.2 381.68 566.775 381.461C567.379 381.241 567.968 380.954 568.544 380.597L571.093 384.874C570.134 385.422 569.092 385.861 567.968 386.19C566.871 386.519 565.83 386.683 564.843 386.683ZM593.049 386.19V355.925H602.095C605.138 355.925 607.729 356.377 609.867 357.282C612.005 358.186 613.719 359.393 615.007 360.9C616.323 362.408 617.282 364.094 617.886 365.958C618.489 367.822 618.79 369.7 618.79 371.592C618.79 373.84 618.379 375.868 617.557 377.678C616.762 379.459 615.665 380.995 614.267 382.283C612.869 383.544 611.251 384.517 609.415 385.203C607.578 385.861 605.632 386.19 603.576 386.19H593.049ZM599.011 380.433H602.548C604.055 380.433 605.426 380.241 606.66 379.857C607.893 379.446 608.949 378.856 609.826 378.089C610.731 377.321 611.416 376.362 611.882 375.21C612.375 374.032 612.622 372.688 612.622 371.181C612.622 369.207 612.293 367.603 611.635 366.369C611.005 365.108 610.21 364.135 609.25 363.45C608.318 362.764 607.359 362.298 606.372 362.052C605.385 361.778 604.549 361.641 603.863 361.641H599.011V380.433ZM632.668 386.683C630.475 386.683 628.611 386.272 627.075 385.449C625.568 384.627 624.416 383.489 623.621 382.036C622.826 380.583 622.429 378.911 622.429 377.02C622.429 375.21 622.895 373.579 623.827 372.126C624.759 370.673 626.006 369.522 627.569 368.672C629.131 367.795 630.872 367.356 632.791 367.356C635.368 367.356 637.479 368.11 639.124 369.618C640.796 371.098 641.879 373.25 642.372 376.074L628.391 380.515L627.117 377.39L637.232 373.977L636.04 374.511C635.82 373.799 635.423 373.182 634.847 372.661C634.299 372.113 633.463 371.838 632.339 371.838C631.489 371.838 630.735 372.044 630.077 372.455C629.447 372.839 628.953 373.401 628.597 374.141C628.268 374.854 628.103 375.704 628.103 376.691C628.103 377.815 628.309 378.76 628.72 379.528C629.131 380.268 629.693 380.83 630.406 381.214C631.119 381.598 631.914 381.79 632.791 381.79C633.422 381.79 634.025 381.68 634.601 381.461C635.204 381.241 635.793 380.954 636.369 380.597L638.918 384.874C637.959 385.422 636.917 385.861 635.793 386.19C634.696 386.519 633.655 386.683 632.668 386.683ZM652.395 386.56C650.915 386.56 649.53 386.299 648.242 385.778C646.981 385.258 645.911 384.531 645.034 383.599L647.419 380.433C648.296 381.228 649.105 381.803 649.845 382.16C650.613 382.489 651.298 382.653 651.901 382.653C652.367 382.653 652.779 382.612 653.135 382.53C653.519 382.42 653.82 382.269 654.04 382.078C654.259 381.858 654.369 381.584 654.369 381.255C654.369 380.789 654.177 380.419 653.793 380.145C653.437 379.871 652.971 379.651 652.395 379.487C651.819 379.295 651.202 379.103 650.544 378.911C648.9 378.39 647.707 377.636 646.967 376.65C646.254 375.635 645.898 374.539 645.898 373.36C645.898 372.455 646.131 371.551 646.597 370.646C647.09 369.714 647.858 368.946 648.9 368.343C649.969 367.713 651.339 367.397 653.012 367.397C654.519 367.397 655.794 367.548 656.836 367.85C657.878 368.151 658.865 368.645 659.797 369.33L657.617 372.702C657.096 372.291 656.507 371.948 655.849 371.674C655.218 371.372 654.629 371.208 654.081 371.181C653.587 371.153 653.162 371.208 652.806 371.345C652.477 371.482 652.217 371.66 652.025 371.88C651.833 372.099 651.737 372.332 651.737 372.579C651.71 373.099 651.901 373.511 652.313 373.812C652.751 374.114 653.3 374.347 653.957 374.511C654.615 374.676 655.26 374.868 655.89 375.087C656.767 375.361 657.521 375.731 658.152 376.197C658.782 376.663 659.262 377.225 659.591 377.883C659.947 378.514 660.126 379.281 660.126 380.186C660.126 381.283 659.838 382.324 659.262 383.311C658.714 384.271 657.864 385.052 656.713 385.655C655.589 386.258 654.149 386.56 652.395 386.56ZM664.948 368.22H670.704V386.19H664.948V368.22ZM664.824 361.846C664.824 360.996 665.153 360.297 665.811 359.749C666.496 359.201 667.223 358.927 667.99 358.927C668.758 358.927 669.457 359.201 670.088 359.749C670.746 360.297 671.075 360.996 671.075 361.846C671.075 362.696 670.746 363.395 670.088 363.943C669.457 364.464 668.758 364.725 667.99 364.725C667.223 364.725 666.496 364.464 665.811 363.943C665.153 363.395 664.824 362.696 664.824 361.846ZM685.927 395.236C684.309 395.236 682.938 395.044 681.814 394.66C680.718 394.277 679.786 393.811 679.018 393.262C678.251 392.714 677.565 392.193 676.962 391.7L680.334 387.752C680.965 388.328 681.691 388.876 682.513 389.397C683.363 389.945 684.474 390.219 685.844 390.219C686.749 390.219 687.585 390.055 688.353 389.726C689.148 389.424 689.778 388.972 690.244 388.369C690.738 387.766 690.984 387.012 690.984 386.107V382.16L691.19 383.188C690.751 384.12 689.956 384.942 688.805 385.655C687.654 386.34 686.146 386.683 684.282 386.683C682.664 386.683 681.157 386.272 679.758 385.449C678.388 384.6 677.291 383.462 676.469 382.036C675.646 380.583 675.235 378.939 675.235 377.102C675.235 375.21 675.674 373.538 676.551 372.085C677.428 370.605 678.566 369.44 679.964 368.59C681.362 367.74 682.842 367.315 684.405 367.315C685.968 367.315 687.311 367.548 688.435 368.014C689.586 368.453 690.45 369.001 691.025 369.659L690.82 370.194L691.437 368.22H696.741V386.19C696.741 387.944 696.248 389.493 695.261 390.836C694.274 392.207 692.958 393.276 691.313 394.044C689.696 394.839 687.9 395.236 685.927 395.236ZM681.033 376.937C681.033 377.897 681.252 378.76 681.691 379.528C682.13 380.296 682.719 380.899 683.459 381.337C684.227 381.776 685.077 381.995 686.009 381.995C686.804 381.995 687.503 381.899 688.106 381.707C688.736 381.488 689.285 381.187 689.751 380.803C690.244 380.392 690.655 379.884 690.984 379.281V374.881C690.738 374.278 690.368 373.771 689.874 373.36C689.381 372.921 688.805 372.592 688.147 372.373C687.517 372.126 686.804 372.003 686.009 372.003C685.077 372.003 684.227 372.222 683.459 372.661C682.719 373.072 682.13 373.648 681.691 374.388C681.252 375.128 681.033 375.978 681.033 376.937ZM707.877 368.22L708.33 371.427L708.247 371.139C708.878 370.015 709.769 369.111 710.92 368.425C712.072 367.713 713.483 367.356 715.156 367.356C716.855 367.356 718.267 367.863 719.391 368.878C720.542 369.865 721.132 371.153 721.159 372.743V386.19H715.402V374.881C715.375 374.086 715.156 373.456 714.744 372.99C714.361 372.496 713.703 372.25 712.771 372.25C711.893 372.25 711.126 372.538 710.468 373.113C709.81 373.689 709.303 374.47 708.946 375.457C708.59 376.444 708.412 377.582 708.412 378.87V386.19H702.655V368.22H707.877ZM735.911 386.683C733.718 386.683 731.854 386.272 730.319 385.449C728.811 384.627 727.66 383.489 726.865 382.036C726.07 380.583 725.672 378.911 725.672 377.02C725.672 375.21 726.138 373.579 727.07 372.126C728.002 370.673 729.25 369.522 730.812 368.672C732.375 367.795 734.116 367.356 736.035 367.356C738.612 367.356 740.722 368.11 742.367 369.618C744.039 371.098 745.122 373.25 745.616 376.074L731.635 380.515L730.36 377.39L740.476 373.977L739.283 374.511C739.064 373.799 738.666 373.182 738.091 372.661C737.542 372.113 736.706 371.838 735.582 371.838C734.732 371.838 733.979 372.044 733.321 372.455C732.69 372.839 732.197 373.401 731.84 374.141C731.511 374.854 731.347 375.704 731.347 376.691C731.347 377.815 731.552 378.76 731.964 379.528C732.375 380.268 732.937 380.83 733.65 381.214C734.362 381.598 735.157 381.79 736.035 381.79C736.665 381.79 737.268 381.68 737.844 381.461C738.447 381.241 739.036 380.954 739.612 380.597L742.162 384.874C741.202 385.422 740.16 385.861 739.036 386.19C737.94 386.519 736.898 386.683 735.911 386.683ZM754.98 368.22L755.515 373.154L755.392 372.414C755.912 371.345 756.625 370.44 757.53 369.7C758.434 368.933 759.325 368.343 760.203 367.932C761.107 367.521 761.793 367.315 762.259 367.315L761.971 373.072C760.628 372.908 759.476 373.127 758.517 373.73C757.557 374.333 756.817 375.128 756.296 376.115C755.775 377.102 755.515 378.116 755.515 379.158V386.19H749.799V368.22H754.98Z" fill="#F77F64"/>
<path d="M783.414 432.726C783.495 432.25 784.177 432.25 784.258 432.726L785.316 438.925C785.371 439.247 785.605 439.51 785.919 439.603L790.665 441.001C791.075 441.122 791.075 441.702 790.665 441.823L785.919 443.222C785.605 443.314 785.371 443.577 785.316 443.899L784.258 450.099C784.177 450.574 783.495 450.574 783.414 450.099L782.356 443.899C782.301 443.577 782.067 443.314 781.753 443.222L777.007 441.823C776.597 441.702 776.597 441.122 777.007 441.001L781.753 439.603C782.067 439.51 782.301 439.247 782.356 438.925L783.414 432.726Z" fill="#F77F64"/>
<path d="M789.33 414.18C789.39 413.824 789.902 413.824 789.963 414.18L790.757 418.829C790.798 419.071 790.973 419.268 791.208 419.338L794.768 420.387C795.076 420.477 795.076 420.912 794.768 421.003L791.208 422.052C790.973 422.121 790.798 422.318 790.757 422.56L789.963 427.21C789.902 427.566 789.39 427.566 789.33 427.21L788.536 422.56C788.495 422.318 788.32 422.121 788.084 422.052L784.524 421.003C784.217 420.912 784.217 420.477 784.524 420.387L788.084 419.338C788.32 419.268 788.495 419.071 788.536 418.829L789.33 414.18Z" fill="#F77F64"/>
<path d="M802.846 414.153C803.002 413.167 804.42 413.167 804.575 414.153L806.814 428.368C806.917 429.022 807.38 429.562 808.011 429.763L818.233 433.027C819.045 433.286 819.045 434.435 818.233 434.694L808.011 437.958C807.38 438.159 806.917 438.699 806.814 439.353L804.575 453.568C804.42 454.553 803.002 454.553 802.846 453.568L800.608 439.353C800.505 438.699 800.042 438.159 799.411 437.958L789.188 434.694C788.376 434.435 788.376 433.286 789.188 433.027L799.411 429.763C800.042 429.562 800.505 429.022 800.608 428.368L802.846 414.153Z" fill="#F77F64"/>
</svg>
