<svg width="61" height="81" viewBox="0 0 61 81" fill="none" xmlns="http://www.w3.org/2000/svg">
<path fill-rule="evenodd" clip-rule="evenodd" d="M25.4028 31.2077C25.272 32.0379 24.6841 32.7234 23.8834 32.979L9.42543 37.5947C7.56978 38.1872 7.56978 40.8128 9.42543 41.4053L23.8834 46.021C24.6841 46.2766 25.272 46.9621 25.4028 47.7923L28.3419 66.4551C28.6966 68.7069 31.9386 68.7069 32.2932 66.4551L35.2324 47.7923C35.3631 46.9621 35.9511 46.2766 36.7517 46.021L51.2097 41.4053C53.0654 40.8128 53.0654 38.1872 51.2097 37.5947L36.7517 32.979C35.9511 32.7234 35.3631 32.0379 35.2324 31.2077L32.2932 12.5449C31.9386 10.2931 28.6966 10.2931 28.3419 12.5449L25.4028 31.2077ZM40.7967 27.972L38.2202 11.6115C36.8016 2.60411 23.8335 2.6043 22.415 11.6115L19.8384 27.972L7.60065 31.879C0.178066 34.2486 0.178012 44.7514 7.60065 47.1211L19.8384 51.028L22.415 67.3885C23.8335 76.3959 36.8017 76.3957 38.2202 67.3885L40.7967 51.028L53.0345 47.1211C60.4571 44.7514 60.4571 34.2487 53.0345 31.879L40.7967 27.972Z" fill="#FBFBFB"/>
<g filter="url(#filter0_d_227_2)">
<path d="M28.3419 12.5449C28.6965 10.2931 31.9385 10.2931 32.2932 12.5449L35.2323 31.2077C35.3631 32.0379 35.951 32.7234 36.7517 32.979L51.2097 37.5947C53.0653 38.1872 53.0653 40.8128 51.2097 41.4053L36.7517 46.021C35.951 46.2766 35.3631 46.9621 35.2323 47.7923L32.2932 66.4551C31.9385 68.7069 28.6965 68.7069 28.3419 66.4551L25.4027 47.7923C25.272 46.9621 24.684 46.2766 23.8834 46.021L9.42538 41.4053C7.56973 40.8128 7.56973 38.1872 9.42539 37.5947L23.8834 32.979C24.684 32.7234 25.272 32.0379 25.4027 31.2077L28.3419 12.5449Z" fill="#F77F64"/>
</g>
<defs>
<filter id="filter0_d_227_2" x="0.0336914" y="6.85602" width="60.5676" height="73.288" filterUnits="userSpaceOnUse" color-interpolation-filters="sRGB">
<feFlood flood-opacity="0" result="BackgroundImageFix"/>
<feColorMatrix in="SourceAlpha" type="matrix" values="0 0 0 0 0 0 0 0 0 0 0 0 0 0 0 0 0 0 127 0" result="hardAlpha"/>
<feOffset dy="4"/>
<feGaussianBlur stdDeviation="4"/>
<feComposite in2="hardAlpha" operator="out"/>
<feColorMatrix type="matrix" values="0 0 0 0 0 0 0 0 0 0 0 0 0 0 0 0 0 0 0.15 0"/>
<feBlend mode="normal" in2="BackgroundImageFix" result="effect1_dropShadow_227_2"/>
<feBlend mode="normal" in="SourceGraphic" in2="effect1_dropShadow_227_2" result="shape"/>
</filter>
</defs>
</svg>
